<svg width="288" height="96" viewBox="0 0 288 96" fill="none" xmlns="http://www.w3.org/2000/svg">
<rect x="1" y="0.5" width="286" height="95" rx="5.5" fill="white" stroke="#D9D9D9"/>
<path fill-rule="evenodd" clip-rule="evenodd" d="M140.508 50.9427V59.2605L140.49 59.2742C140.49 59.4673 140.42 59.6539 140.295 59.8007C140.169 59.9475 139.996 60.045 139.805 60.0758L138.959 60.2539L138.884 60.6822H147.164L147.088 60.2539L145.944 60.0758C145.752 60.0447 145.577 59.9457 145.451 59.7967C145.326 59.6478 145.257 59.4588 145.259 59.2639L145.225 50.5967C145.225 49.0072 144.752 47.5649 143.968 46.7462C143.128 45.9287 142.011 45.4588 140.84 45.4307C137.514 45.4307 135.608 48.1457 135.516 48.2762L135.513 48.2809L135.366 48.5036V38.3359L128.579 40.5456L129.326 40.8402C129.682 40.9812 129.988 41.2262 130.203 41.5433C130.418 41.8604 130.533 42.235 130.532 42.6181V59.2536C130.531 59.4467 130.462 59.6333 130.336 59.7801C130.211 59.9269 130.037 60.0244 129.847 60.0552L129 60.2334L128.925 60.6616H137.222L137.147 60.2334L136.003 60.0552C135.81 60.0241 135.635 59.9251 135.51 59.7762C135.384 59.6273 135.316 59.4382 135.318 59.2433V50.8434C135.335 50.1859 135.604 49.5602 136.069 49.0955C136.535 48.6307 137.161 48.3625 137.818 48.346C138.166 48.3369 138.512 48.3971 138.837 48.5233C139.161 48.6494 139.457 48.8388 139.707 49.0806C139.958 49.3223 140.157 49.6114 140.295 49.9312C140.432 50.2509 140.505 50.5947 140.508 50.9427ZM105.459 43.9233C104.719 43.9233 104.008 43.6292 103.485 43.1056C102.961 42.582 102.667 41.8718 102.667 41.1313C102.667 40.3909 102.961 39.6807 103.485 39.1571C104.008 38.6335 104.719 38.3393 105.459 38.3393C105.832 38.3241 106.205 38.3846 106.554 38.5173C106.903 38.6501 107.222 38.8522 107.491 39.1116C107.76 39.3709 107.974 39.6821 108.119 40.0263C108.264 40.3705 108.338 40.7406 108.337 41.1142C108.336 41.4887 108.26 41.8592 108.115 42.2042C107.969 42.5491 107.756 42.8615 107.488 43.1231C107.22 43.3847 106.902 43.5902 106.554 43.7276C106.206 43.865 105.833 43.9315 105.459 43.9233ZM235.692 61.1789C232.287 61.1789 229.673 57.9963 229.673 53.9265C229.644 52.8168 229.839 51.7126 230.245 50.6796C230.651 49.6465 231.261 48.7057 232.039 47.9132C232.816 47.1206 233.745 46.4924 234.77 46.0659C235.794 45.6394 236.895 45.4234 238.005 45.4307C239.026 45.4443 240.034 45.6695 240.965 46.0918L241.078 46.1432V42.8202C241.078 41.2752 240.893 41.1724 240.101 40.984L239.861 40.9258L238.834 40.6243L245.857 38.3428V57.1091C245.857 58.7911 246.079 59.2125 247.103 59.5071L247.727 59.6647L247.539 60.1066L241.084 61.172V58.01L240.941 58.1916C239.454 60.0689 237.498 61.1789 235.692 61.1789ZM238.227 46.3282C235.918 46.3282 234.802 48.3563 234.802 52.5323C234.802 56.191 236.155 58.4622 238.33 58.4622C239.039 58.4551 239.718 58.1766 240.228 57.684C240.738 57.1914 241.039 56.5223 241.071 55.8141V49.1819C241.074 47.0271 239.156 46.3282 238.227 46.3282ZM101.417 60.2471L101.341 60.6753L109.937 60.6787L109.861 60.2505L108.717 60.0724C108.521 60.0394 108.344 59.9365 108.218 59.7828C108.092 59.6292 108.026 59.4351 108.032 59.2365V45.4307L101.365 47.5992L101.776 47.702C102.468 47.8904 103.263 48.3289 103.263 50.0657V59.257C103.265 59.4638 103.189 59.6637 103.049 59.8159C102.909 59.968 102.716 60.061 102.509 60.0758L101.417 60.2471ZM175.701 68.832L175.776 68.4038L176.869 68.2325C177.075 68.2177 177.268 68.1247 177.408 67.9726C177.548 67.8204 177.625 67.6206 177.623 67.4138V50.2028C177.623 49.0346 177.098 48.0274 176.376 47.8047L175.69 47.63L182.395 45.4204V48.5961L182.539 48.4145C184.015 46.5406 185.838 45.4204 187.643 45.4204C191.045 45.4307 193.381 48.9318 193.381 52.9982C193.381 58.4212 189.236 61.172 185.159 61.172C184.237 61.1989 183.32 61.0235 182.473 60.6582L182.36 60.6068V67.4035C182.358 67.6108 182.435 67.8112 182.576 67.9634C182.717 68.1157 182.911 68.2083 183.117 68.2223L184.207 68.3935L184.282 68.8218L175.701 68.832ZM185.104 48.0617C184.394 48.0903 183.72 48.3823 183.214 48.8807C182.707 49.3791 182.404 50.0482 182.364 50.7577V57.6367C182.368 58.3238 182.638 58.9826 183.118 59.4746C183.598 59.9665 184.25 60.2532 184.937 60.2745C186.502 60.2745 188.506 59.0172 188.506 53.6868C188.496 50.0281 187.28 48.0617 185.104 48.0617ZM83.1845 39.7576C83.1868 39.5508 83.1101 39.351 82.97 39.1988C82.83 39.0467 82.6371 38.9537 82.4309 38.9389L81.3381 38.7676L81.2627 38.3394H90.6904L90.6082 38.7676L89.5153 38.9389C89.3091 38.9537 89.1162 39.0467 88.9762 39.1988C88.8361 39.351 88.7594 39.5508 88.7617 39.7576V59.0378C88.7617 59.9456 89.9504 59.8086 89.9504 59.8086C93.3488 59.8086 95.4556 58.5342 97.7337 53.5703L98.1071 52.7549H99.1726L98.2202 60.6753H81.2627L81.3381 60.2471L82.4309 60.0758C82.6371 60.061 82.83 59.968 82.97 59.8158C83.1101 59.6637 83.1868 59.4638 83.1845 59.257V39.7576ZM151.961 59.8809C152.767 60.6989 153.864 61.1654 155.013 61.1789C156.986 61.1789 158.212 60.4047 159.428 59.3187L159.007 58.8288L158.949 58.8528C158.561 59.0491 158.133 59.1535 157.698 59.1577C156.681 59.1577 155.17 58.3903 155.17 56.2766V48.024H157.476L159.432 45.9685H155.156V42.0906L150.703 43.5671V45.393C150.704 45.4674 150.69 45.5412 150.662 45.6101C150.634 45.6791 150.593 45.7418 150.541 45.7947C150.489 45.8476 150.426 45.8896 150.358 45.9183C150.289 45.9469 150.215 45.9617 150.141 45.9617H149.432L147.342 48.0171H150.706V56.8111C150.704 57.9597 151.154 59.063 151.961 59.8809ZM201.144 51.7307L210.308 51.8711C210.342 51.5868 210.349 50.679 210.335 50.3604C210.232 48.0445 208.622 45.4307 204.412 45.4307C199.654 45.4307 196.063 48.9147 196.063 53.6525C196.063 57.9655 199.184 61.1892 203.326 61.1892C206.649 61.1892 208.982 59.7093 210.277 56.7049L209.934 56.4102C209.52 57.059 208.945 57.5901 208.266 57.9525C207.587 58.3149 206.826 58.4964 206.056 58.4794C203.09 58.4794 201.151 56.0814 201.116 52.3507C201.113 52.1437 201.122 51.9366 201.144 51.7307ZM201.144 50.5865C201.377 47.6985 202.374 46.3865 203.943 46.3865C204.157 46.382 204.369 46.4217 204.567 46.503C204.766 46.5844 204.945 46.7056 205.094 46.8592C205.745 47.5204 206.06 48.5721 206.029 50.5591V50.6378L201.14 50.6721L201.144 50.5865ZM226.936 51.8711L217.772 51.7307C217.743 51.943 217.727 52.157 217.724 52.3713C217.759 56.1019 219.698 58.5 222.664 58.5C223.439 58.5183 224.206 58.3355 224.889 57.9692C225.572 57.603 226.149 57.0658 226.563 56.4102L226.905 56.7049C225.61 59.7093 223.277 61.1892 219.954 61.1892C215.813 61.1892 212.692 57.9655 212.692 53.6525C212.692 48.9147 216.282 45.4307 221.04 45.4307C225.251 45.4307 226.861 48.0445 226.964 50.3604C226.977 50.679 226.97 51.5868 226.936 51.8711ZM220.571 46.3865C219.002 46.3865 218.005 47.6985 217.772 50.5865L217.769 50.6721L222.657 50.6378V50.5591C222.688 48.5721 222.373 47.5204 221.722 46.8592C221.573 46.7056 221.394 46.5844 221.196 46.503C220.998 46.4217 220.785 46.382 220.571 46.3865ZM169.092 51.2648C167.067 50.4871 165.543 49.8945 165.543 48.3974C165.543 47.0271 166.499 46.2289 167.876 46.2289C168.554 46.2294 169.219 46.4167 169.798 46.7702L172.36 50.4905L173.237 50.4563L173.066 45.4307L171.415 45.9685C170.278 45.6186 169.096 45.4374 167.907 45.4307C164.265 45.4307 161.836 47.3525 161.836 50.3535C161.836 53.1181 163.926 54.1664 166.492 55.1496C166.555 55.1744 166.618 55.199 166.681 55.2235C166.755 55.2524 166.829 55.2811 166.903 55.3097C168.627 55.9779 170.137 56.5631 170.137 58.3287C170.137 59.4146 169.109 60.4766 167.437 60.4766C165.683 60.4766 164.772 59.5996 163.628 57.9142L162.689 55.9615L161.788 56.1807L161.47 60.1375C163.356 60.8108 165.342 61.1628 167.345 61.1789C171.863 61.1789 173.922 58.7809 173.922 56.1533C173.916 53.2244 171.481 52.2355 169.181 51.3009L169.092 51.2648ZM116.949 57.8148H122.31C125.304 57.8148 127.387 59.4454 127.38 62.1449C127.38 65.7557 123.444 68.8389 117.894 68.8389C113.537 68.8389 111.385 67.7289 111.385 65.4748C111.385 63.6934 113.369 62.7856 115.387 62.0113C113.4 61.775 111.786 60.3293 111.786 58.7158C111.786 56.9001 113.602 55.5538 115.585 54.9817V54.9474C113.667 54.276 112.355 52.9947 112.355 50.6755C112.355 47.9863 115.047 45.4375 119.014 45.4375C120.462 45.4266 121.891 45.7688 123.177 46.4344L126.37 45.1189L126.822 46.4378L124.955 48.1507C125.458 48.716 125.606 49.3634 125.606 50.2541C125.606 53.2448 122.848 55.3654 118.778 55.3654C118.26 55.3691 117.743 55.3244 117.233 55.2318C117.16 55.2263 117.087 55.2263 117.014 55.2318C116.843 55.2335 116.674 55.2694 116.518 55.3374C116.361 55.4054 116.22 55.5041 116.102 55.6277C115.984 55.7513 115.892 55.8973 115.832 56.057C115.771 56.2167 115.743 56.3869 115.75 56.5575C115.758 56.8784 115.885 57.1848 116.107 57.4171C116.329 57.6494 116.629 57.7911 116.949 57.8148ZM118.068 46.6408C117.793 46.8075 117.57 47.0466 117.421 47.332C117.106 47.9966 117.027 49.0654 117.031 50.4974C117.031 53.423 117.743 54.646 118.98 54.646C120.443 54.646 121.036 53.6045 121.036 50.535C121.036 47.4656 120.244 46.3865 118.98 46.3865C118.659 46.3861 118.343 46.474 118.068 46.6408ZM114.979 64.6183C114.979 66.434 116.222 67.681 118.34 67.681H118.357C121.066 67.681 124.225 66.3586 124.225 64.4505C124.225 62.7376 123.091 62.2203 120.693 62.0524H117.829C116.473 62.0524 114.979 63.248 114.979 64.6183Z" fill="black"/>
<path d="M64.5073 49.5073H53.3394V38.3394L42.168 27.168V38.3394V49.5073V60.6787H53.3394H64.5073H75.6787L64.5073 49.5073Z" fill="#ED6D5B"/>
</svg>
