<svg width="160" height="64" viewBox="0 0 160 64" fill="none" xmlns="http://www.w3.org/2000/svg">
<rect x="0.5" y="0.5" width="159" height="63" rx="3.5" fill="white" stroke="#D9D9D9"/>
<path d="M26.4681 37.5082V39.8951H33.7918V37.4623H31.32V27.7311H26.4681V30.2098H28.8941V37.5082H26.4681Z" fill="#EA0029"/>
<path d="M42.2599 30.1639V46H18V21.6721H33.7918V24.1049H20.426V43.5672H39.8339V30.1639H42.2599Z" fill="#EA0029"/>
<path d="M42.2599 24.059V27.777H39.8339V24.1049H36.172V21.6721H39.8339V18H42.2599V21.6721H45.9217V24.059H42.2599Z" fill="#EA0029"/>
<path d="M68.2593 33.836C68.2593 33.1475 68.1677 32.5507 67.9847 31.9999C67.8016 31.4491 67.5269 30.9901 67.2065 30.6229C66.8861 30.2557 66.4741 29.9344 65.9706 29.7507C65.4671 29.5212 64.9178 29.4294 64.3228 29.4294C63.7277 29.4294 63.1785 29.5671 62.6749 29.7507C62.1714 29.9344 61.7595 30.2557 61.4391 30.6229C61.1187 30.9901 60.844 31.4491 60.6609 31.9999C60.4778 32.5507 60.3863 33.1475 60.3863 33.836C60.3863 34.5245 60.4778 35.1212 60.6609 35.6721C60.844 36.2229 61.1187 36.6819 61.4391 37.0491C61.7595 37.4163 62.1714 37.7376 62.6749 37.9212C63.1785 38.1507 63.7277 38.2425 64.3228 38.2425C64.9636 38.2425 65.4671 38.1048 65.9706 37.9212C66.4741 37.6917 66.8861 37.4163 67.2065 37.0491C67.5269 36.6819 67.8016 36.2229 67.9847 35.6721C68.1677 35.1212 68.2593 34.5245 68.2593 33.836Z" fill="#EA0029"/>
<path d="M97.2338 28.9245H99.2478C100.255 28.9245 100.987 29.154 101.445 29.5671C101.948 30.0262 102.177 30.6688 102.177 31.4491C102.177 31.8163 102.132 32.1835 101.994 32.5048C101.903 32.8262 101.674 33.1016 101.445 33.3311C101.216 33.5606 100.896 33.7442 100.53 33.8819C100.163 34.0196 99.7514 34.0655 99.2478 34.0655H97.2338V28.9245Z" fill="#EA0029"/>
<path fill-rule="evenodd" clip-rule="evenodd" d="M50.7281 45.9999H142V21.6721H50.7281V45.9999ZM70.1818 31.3114C70.5022 32.0917 70.6395 32.918 70.6395 33.836C70.6395 34.754 70.4564 35.5803 70.1818 36.3147C69.8614 37.095 69.4494 37.7835 68.9001 38.3344C68.3508 38.8852 67.71 39.3442 66.9319 39.6655C66.1537 39.9868 65.284 40.1245 64.3686 40.1245C63.4531 40.1245 62.5834 39.9868 61.8053 39.6655C61.0271 39.3442 60.3405 38.8852 59.7912 38.3344C59.2419 37.7835 58.83 37.095 58.5096 36.3147C58.1892 35.5344 58.0518 34.7081 58.0518 33.7901C58.0518 32.8721 58.1892 32.0458 58.5096 31.2655C58.83 30.4852 59.2419 29.7966 59.7912 29.2458C60.3863 28.695 61.0271 28.236 61.8053 27.9147C62.5834 27.6393 63.4531 27.4557 64.3686 27.4557C65.284 27.4557 66.1537 27.6393 66.9319 27.9606C67.71 28.2819 68.3508 28.7409 68.9001 29.2917C69.4494 29.8425 69.8614 30.5311 70.1818 31.3114ZM80.8927 27.5934H82.9525V40.0786H81.7624C81.5793 40.0786 81.442 40.0327 81.3047 39.9868C81.1674 39.9409 81.0301 39.8032 80.9385 39.6655L74.4387 31.3573C74.4387 31.4491 74.4501 31.5409 74.4616 31.6327C74.473 31.7245 74.4845 31.8163 74.4845 31.9081V40.1245H72.4704V27.6852H73.9352C74.0267 27.6852 74.0725 27.6852 74.1183 27.7311C74.1641 27.7311 74.2098 27.777 74.2556 27.8229C74.2695 27.8368 74.2875 27.8507 74.3072 27.8658C74.3526 27.9008 74.4068 27.9425 74.4387 28.0065L80.9385 36.3147C80.9385 36.1935 80.9258 36.0852 80.9137 35.9829C80.9029 35.8913 80.8927 35.8046 80.8927 35.718V27.5934ZM85.4243 27.5934H93.2515V29.4753H87.7587V32.8721H92.1072V34.6622H87.7587V38.1966H93.2515V40.0327H85.4243V27.5934ZM103.642 29.8425C103.825 30.3475 103.917 30.8524 103.917 31.4491C103.917 32.0458 103.779 32.5507 103.596 33.0557C103.413 33.5147 103.139 33.9278 102.727 34.295C102.315 34.6622 101.857 34.9376 101.262 35.1212C100.713 35.3048 100.026 35.3966 99.2936 35.3966H97.2796V40.0327H95.586V27.5475H99.2478C100.026 27.5475 100.713 27.6393 101.308 27.8229C101.903 28.0065 102.406 28.2819 102.772 28.6032C103.184 28.9704 103.459 29.3835 103.642 29.8425ZM107.716 38.6557H113.117V40.0786H106.022V27.5934H107.716V38.6557ZM123.05 27.5934H124.652V35.1671C124.652 35.9016 124.561 36.5901 124.332 37.1868C124.103 37.8294 123.782 38.3344 123.37 38.7934C122.958 39.2524 122.409 39.5737 121.814 39.8491C121.219 40.0786 120.532 40.2163 119.754 40.2163C118.976 40.2163 118.29 40.1245 117.695 39.8491C117.099 39.6196 116.55 39.2524 116.138 38.7934C115.68 38.3344 115.36 37.7835 115.131 37.1868C114.902 36.5442 114.811 35.9016 114.811 35.1671V27.5934H116.504V35.213C116.504 35.718 116.596 36.2229 116.733 36.636C116.871 37.0491 117.099 37.4163 117.374 37.7376C117.649 38.0589 118.015 38.2884 118.427 38.4721C118.839 38.6557 119.297 38.7475 119.8 38.7475C120.304 38.7475 120.761 38.6557 121.173 38.4721C121.539 38.2884 121.906 38.0589 122.18 37.7376C122.455 37.4163 122.684 37.0032 122.821 36.5901C122.958 36.177 123.05 35.6721 123.05 35.1671V27.5934ZM134.448 34.9835C134.631 35.3048 134.722 35.7639 134.722 36.2688C134.722 36.8196 134.631 37.3245 134.448 37.8753C134.264 38.3344 133.99 38.7475 133.624 39.1147C133.257 39.436 132.8 39.7573 132.296 39.9409C131.747 40.1704 131.152 40.2622 130.511 40.2622C129.687 40.2622 129.001 40.0786 128.314 39.8032C127.673 39.5278 127.078 39.1147 126.62 38.6098L127.124 37.8294C127.147 37.8065 127.181 37.7835 127.215 37.7606C127.25 37.7376 127.284 37.7147 127.307 37.6917C127.398 37.6458 127.444 37.6458 127.536 37.6458C127.673 37.6458 127.81 37.6917 127.948 37.8294C128.045 37.8782 128.142 37.9529 128.246 38.0328C128.338 38.1033 128.435 38.178 128.543 38.2425C128.817 38.3802 129.092 38.518 129.412 38.6557C129.779 38.7934 130.145 38.8393 130.648 38.8393C131.015 38.8393 131.381 38.7475 131.701 38.6557C131.976 38.5639 132.25 38.3803 132.479 38.1966C132.708 37.9671 132.845 37.7376 132.983 37.4622C133.12 37.1868 133.166 36.8655 133.166 36.5442C133.166 36.177 133.074 35.8557 132.891 35.6262C132.708 35.3966 132.479 35.213 132.205 35.0294C131.93 34.8458 131.61 34.7081 131.243 34.6163C131.06 34.5475 130.877 34.4901 130.694 34.4327C130.511 34.3753 130.328 34.318 130.145 34.2491L129.046 33.836C128.68 33.6983 128.36 33.4688 128.085 33.2393C127.81 33.0098 127.582 32.6885 127.398 32.3212C127.215 31.954 127.124 31.495 127.124 30.9442C127.124 30.4852 127.215 30.0721 127.398 29.6589C127.536 29.2458 127.81 28.8786 128.131 28.5573C128.451 28.236 128.863 27.9606 129.321 27.777C129.779 27.5934 130.328 27.5016 130.969 27.5016C131.701 27.5016 132.342 27.5934 132.891 27.8229C133.486 28.0524 133.99 28.3737 134.402 28.7868L133.99 29.5671C133.958 29.6311 133.904 29.6728 133.858 29.7078C133.839 29.7229 133.821 29.7368 133.807 29.7507C133.761 29.7966 133.669 29.7966 133.578 29.7966C133.486 29.7966 133.395 29.7507 133.257 29.6589C133.206 29.6248 133.149 29.5906 133.087 29.554C132.984 29.4924 132.869 29.4241 132.754 29.3376C132.662 29.3006 132.569 29.2562 132.474 29.2102C132.333 29.1423 132.185 29.0711 132.022 29.0163C131.747 28.9245 131.427 28.8786 131.015 28.8786C130.648 28.8786 130.282 28.9245 130.008 29.0163C129.733 29.1081 129.458 29.2458 129.275 29.4294C129.046 29.5671 128.909 29.7966 128.817 30.0262C128.726 30.3016 128.68 30.5311 128.68 30.8065C128.68 31.1737 128.772 31.4491 128.955 31.6786C129.138 31.9081 129.367 32.0917 129.641 32.2753C129.916 32.413 130.236 32.5507 130.603 32.6884C130.786 32.7573 130.969 32.8147 131.152 32.8721C131.335 32.9294 131.518 32.9868 131.701 33.0557C132.067 33.1475 132.434 33.2852 132.8 33.4688C133.166 33.6065 133.486 33.836 133.761 34.0655C134.036 34.3409 134.264 34.6163 134.448 34.9835Z" fill="#EA0029"/>
</svg>
