<svg width="288" height="96" viewBox="0 0 288 96" fill="none" xmlns="http://www.w3.org/2000/svg">
<rect x="1" y="0.5" width="286" height="95" rx="5.5" fill="white" stroke="#D9D9D9"/>
<g clip-path="url(#clip0_4278_156798)">
<path d="M94.676 68.7862H95.072C96.348 68.7862 97.734 68.5454 97.734 66.9692C97.734 65.393 96.238 65.2179 95.006 65.2179H94.676V68.7862ZM94.676 74.0841H93.422V64.1014H94.852C97.932 64.1014 98.9 65.1522 98.9 66.9911C98.9 69.0927 97.294 69.9027 95.38 69.9027H94.676V74.0841ZM108.8 66.4219L107.018 70.45H110.582L108.8 66.4219ZM106.49 71.5884L105.346 74.0841H104.004L108.8 63.6855L113.596 74.0841H112.254L111.11 71.5884H106.49ZM121.01 68.83H121.406C122.682 68.83 124.068 68.5892 124.068 67.013C124.068 65.4368 122.572 65.2179 121.34 65.2179H121.01V68.83ZM126.004 74.0841H124.486L121.516 69.8589H120.988V74.0841H119.756V64.1014H121.274C122.176 64.1014 123.122 64.1233 123.914 64.5611C124.75 65.0428 125.234 65.9841 125.234 66.9473C125.234 68.3703 124.266 69.5743 122.836 69.7495L126.004 74.0841ZM135.002 74.0841H133.748V65.2398H131.372V64.1014H137.378V65.2398H135.002V74.0841ZM143.582 63.6417L151.106 71.5008V64.1014H152.36V74.5L144.836 66.6409V74.0841H143.582V63.6417ZM159.73 64.1014H165.12V65.2398H160.984V68.0419H165.01V69.1803H160.984V72.9457H165.12V74.0841H159.73V64.1014ZM173.238 68.83H173.634C174.91 68.83 176.296 68.5892 176.296 67.013C176.296 65.4368 174.8 65.2179 173.568 65.2179H173.238V68.83ZM178.232 74.0841H176.714L173.766 69.8589H173.238V74.0841H171.984V64.1014H173.502C174.404 64.1014 175.35 64.1233 176.142 64.5611C176.978 65.0428 177.462 65.9841 177.462 66.9473C177.462 68.3703 176.494 69.5743 175.064 69.7495L178.232 74.0841ZM188.99 66.006C188.616 65.393 188.132 65.0646 187.384 65.0646C186.592 65.0646 185.712 65.6119 185.712 66.4876C185.712 67.2757 186.482 67.6698 187.12 67.9106L187.846 68.1952C189.276 68.7425 190.332 69.5306 190.332 71.1943C190.332 73.0114 188.924 74.303 187.12 74.303C185.492 74.303 184.238 73.1208 184.018 71.5008L185.272 71.2381C185.25 72.3327 186.13 73.1208 187.208 73.1208C188.286 73.1208 189.056 72.2233 189.056 71.1724C189.056 70.1216 188.198 69.64 187.318 69.2898L186.636 69.0052C185.492 68.5235 184.458 67.8668 184.458 66.4657C184.458 64.8457 185.888 63.8825 187.406 63.8825C188.528 63.8825 189.452 64.4298 189.98 65.393L188.99 66.006ZM106.974 55.8044L107.128 55.3885C107.568 54.2063 107.832 53.5715 107.832 46.3253V38.8821C107.832 37.2621 107.81 35.861 107.392 34.9197C106.952 34.0002 106.182 33.431 104.356 33.431C101.188 33.431 99.472 35.0948 98.636 35.9267V46.3472C98.636 49.6309 98.636 51.2728 98.812 53.0461C98.922 54.2939 99.12 54.7317 99.362 55.4104L99.494 55.8263H92.432L92.63 55.3885C92.872 54.8631 93.048 54.4909 93.18 53.2869C93.312 52.0828 93.378 50.0469 93.378 46.3691V38.3786C93.378 37.3278 93.378 36.0799 92.916 35.1386C92.454 34.2191 91.64 33.5405 89.726 33.5186C87.174 33.5186 85.612 34.7664 84.182 35.9705V46.3691C84.182 49.6528 84.182 51.2947 84.358 53.0679C84.468 54.3158 84.666 54.7536 84.908 55.4323L85.04 55.8482H78.088L78.242 55.4323C78.682 54.2501 78.946 53.6152 78.946 46.3691V41.5967C78.946 41.2683 78.946 36.4959 78.77 34.1753C78.66 32.7524 78.396 32.0956 78.11 31.3075L78 31.0229L83.676 29.0089L83.94 31.3951C85.062 30.4318 87.306 28.8775 91.002 28.8994C92.102 28.8994 94.104 29.0746 95.908 30.1691C96.634 30.5851 97.052 31.0886 97.426 31.5921C98.592 30.6508 101.166 28.8994 105.236 28.8994C107.59 28.8994 110.912 29.6656 112.254 32.0518C112.958 33.4091 113.068 34.6351 113.068 37.3496V46.3472C113.068 50.1782 113.134 51.6669 113.244 53.0461C113.354 54.2501 113.552 54.7317 113.794 55.4323L113.926 55.8482H106.974V55.8044ZM142.46 53.6809C141.69 52.1923 141.69 50.3972 141.69 48.9523V33.8907H139.006V29.0746L139.358 29.1183C140.37 29.2278 140.81 29.2716 141.756 29.3154V23.3827L147.014 21.5V29.3373H151.436C152.25 29.3373 152.998 29.2278 153.812 29.0089L154.252 28.8994L154.208 29.3591C154.032 30.8697 153.922 31.8329 153.724 32.5335C153.526 33.2121 153.174 33.6499 152.602 33.8032C152.25 33.9126 151.832 33.9126 151.326 33.9126H147.014V47.9234C147.014 49.1274 147.102 50.1344 147.41 50.7912C147.718 51.4261 148.18 51.7544 149.214 51.7763C151.084 51.7763 152.756 50.5285 154.12 49.0399L154.692 48.4269L154.67 49.2588C154.582 51.6231 154.472 52.8709 154.274 53.6152C154.098 54.3596 153.702 54.6879 153.35 54.885C152.448 55.476 150.512 56.2641 147.872 56.2641H147.828C144.836 56.2423 143.23 55.1696 142.46 53.6809ZM157.508 55.8044L157.662 55.3885C158.102 54.2063 158.366 53.5715 158.366 46.3253V41.6185C158.366 39.3418 158.366 36.3426 158.19 34.1316C158.124 32.7305 157.882 32.0737 157.596 31.2856L157.486 31.001L162.942 28.987L163.25 31.3513C164.306 30.3224 166.088 28.8775 168.992 28.8775C169.146 28.8775 169.63 28.8775 170.136 29.0308C170.62 29.1621 171.192 29.5343 171.192 30.2567C171.192 30.6508 171.06 31.001 170.906 31.614L170.026 34.4818L169.718 34.3724C169.212 34.1972 168.838 34.044 168.024 34.044C165.56 34.044 164.108 35.4451 163.536 36.0361V46.3472C163.536 50.1782 163.58 51.6669 163.69 53.0461C163.8 54.2501 163.998 54.7317 164.24 55.4104L164.372 55.8263H157.508V55.8044ZM173.942 55.8044L174.096 55.3885C174.514 54.272 174.8 53.5715 174.8 46.3472V41.5091C174.8 39.3418 174.8 36.2332 174.624 34.1534C174.514 32.7962 174.25 32.0081 173.986 31.2856L173.876 30.9791L180.058 28.9651V46.3253C180.058 50.1563 180.124 51.645 180.234 53.0242C180.344 54.2282 180.542 54.7098 180.784 55.3885L180.916 55.8044H173.942ZM191.674 29.3154H191.938L191.982 29.5781C192.246 31.3513 193.06 32.9056 194.116 34.3943L197.24 38.8383C202.014 33.3435 202.542 31.7016 202.938 29.5781L202.982 29.3154H208.856L208.702 29.7313C206.92 34.657 203.686 38.7945 199.99 42.4942L205.688 50.6161C207.36 52.9804 208.284 53.9655 209.516 55.3009L210 55.8263H202.036V55.5198C202.014 54.3377 202.036 54.1625 200.078 51.2071L196.316 45.7123C194.666 47.4418 191.124 51.4261 190.354 55.5417L190.31 55.8044H184.084L184.238 55.3885C186.196 50.2439 189.716 45.975 193.5 42.0783L188.572 34.8978C187.34 33.1245 186.064 31.417 184.678 29.8189L184.238 29.3154H191.674ZM130.096 48.3393C129.986 49.2807 129.832 50.3534 128.336 51.2728C127.566 51.7325 126.686 51.9515 125.894 51.9515C123.1 51.9515 122.726 49.828 122.726 48.799C122.726 45.0774 126.664 44.1142 130.096 43.9391V48.3393ZM137.4 53.659C136.058 52.4988 135.464 51.8201 135.442 48.4488V36.1237C135.442 34.8978 135.464 33.1026 134.408 31.5702C133.352 30.0378 131.262 28.8775 127.28 28.8775C125.014 28.8775 122.748 29.3373 121.054 30.0159C119.382 30.7164 118.15 31.5483 118.106 32.6648C118.106 33.0589 118.216 33.4748 118.216 33.5624V33.6499L119.074 36.8461L119.448 36.4521C122.418 33.3216 126.048 33.3216 126.598 33.3216C128.336 33.3216 129.128 33.7813 129.568 34.4599C130.008 35.1386 130.074 36.1237 130.074 37.2402V39.4513C127.324 39.6483 124.288 40.1737 121.868 41.531C119.36 42.9102 117.512 45.2526 117.534 48.8428C117.534 50.419 117.908 52.258 119.008 53.7466C120.108 55.2352 121.956 56.3079 124.772 56.3079H124.794C128.336 56.3079 130.316 54.8412 131.262 53.9874C131.944 55.7387 132.758 56.286 133.352 56.3079C133.77 56.286 134.166 56.0452 134.386 55.9358L137.73 53.9217L137.4 53.659Z" fill="#5D717D"/>
</g>
<defs>
<clipPath id="clip0_4278_156798">
<rect width="132" height="53" fill="white" transform="translate(78 21.5)"/>
</clipPath>
</defs>
</svg>
