<svg width="160" height="64" viewBox="0 0 160 64" fill="none" xmlns="http://www.w3.org/2000/svg">
<rect x="0.5" y="0.5" width="159" height="63" rx="3.5" fill="white" stroke="#D9D9D9"/>
<path d="M53.3661 28.0373H55.3742V21.4955C55.3746 21.3635 55.3489 21.2328 55.2985 21.1108C55.2482 20.9889 55.1743 20.878 55.081 20.7847C54.9877 20.6914 54.8769 20.6175 54.7549 20.5672C54.6329 20.5169 54.5022 20.4912 54.3702 20.4916H39.9692V22.5153H53.3661V28.0373Z" fill="black"/>
<path d="M45.397 37.4651C45.5524 37.5452 45.7243 37.5881 45.8992 37.5906C46.0716 37.5906 46.2284 37.5434 46.4012 37.4495L50.4797 35.1431L49.4915 33.3864L45.8992 35.4101L42.8242 33.6844V30.0447H40.8008V34.2807C40.802 34.4597 40.8505 34.6352 40.9414 34.7895C41.0323 34.9437 41.1623 35.0712 41.3183 35.1591L45.397 37.4651Z" fill="black"/>
<path d="M45.899 42.642C45.7242 42.6395 45.5524 42.5966 45.397 42.5167L36.9097 37.7318C36.7536 37.6441 36.6236 37.5165 36.5327 37.3623C36.4418 37.2081 36.3933 37.0326 36.3921 36.8536V25.9039C36.3917 25.772 36.4173 25.6412 36.4676 25.5192C36.5179 25.3972 36.5919 25.2863 36.6851 25.193C36.7784 25.0997 36.8893 25.0257 37.0113 24.9754C37.1333 24.925 37.264 24.8993 37.396 24.8997H49.8517V26.9234H38.4002V36.2729L45.8674 40.477L53.3347 36.2729V31.896H55.3896V36.8536C55.3884 37.0326 55.3398 37.2081 55.249 37.3623C55.1581 37.5165 55.0281 37.6441 54.872 37.7318L46.3853 42.5167C46.2282 42.6107 46.0714 42.642 45.899 42.642Z" fill="black"/>
<path fill-rule="evenodd" clip-rule="evenodd" d="M46.008 48C45.8318 47.9975 45.6586 47.954 45.5018 47.8731L32.5216 40.5165C32.3644 40.4275 32.2333 40.2983 32.1417 40.1421C32.0501 39.9858 32.0012 39.808 32 39.6267V17.0165C31.9997 16.8829 32.0256 16.7505 32.0763 16.627C32.127 16.5035 32.2015 16.3913 32.2956 16.2968C32.3896 16.2024 32.5013 16.1275 32.6242 16.0766C32.7471 16.0256 32.8788 15.9996 33.0118 16H58.9882C59.1212 15.9996 59.253 16.0256 59.3759 16.0766C59.4987 16.1276 59.6104 16.2024 59.7045 16.2969C59.7985 16.3914 59.873 16.5037 59.9238 16.6272C59.9745 16.7508 60.0004 16.8831 60 17.0168V39.6267C59.9987 39.808 59.9499 39.9857 59.8582 40.1419C59.7666 40.2981 59.6356 40.4273 59.4783 40.5162L46.4979 47.8731C46.3399 47.9684 46.182 48 46.008 48ZM34.0395 39.0388L46.0077 45.8073L57.9761 39.0388V18.0491H34.0395V39.0388Z" fill="black"/>
<path d="M76.6775 23.0003C72.2339 23.0003 69 26.2629 69 30.5002C69 34.7374 72.2339 37.9775 76.6775 38C79.376 38 81.749 36.7086 83.0052 34.6695L80.0972 33.0154C79.4693 34.1256 78.1664 34.7825 76.6775 34.7825C74.0718 34.7825 72.3734 33.0832 72.3734 30.5002C72.3734 27.9173 74.0718 26.2179 76.6775 26.2179C78.1664 26.2179 79.4457 26.8748 80.0972 27.9852L83.0052 26.3311C81.7259 24.292 79.3529 23.0003 76.6775 23.0003Z" fill="black"/>
<path d="M112.086 37.9546V34.7371H105.619V31.9957H111.319V28.7556H105.619V26.195H112.086V23H102.106V37.9546H112.086Z" fill="black"/>
<path fill-rule="evenodd" clip-rule="evenodd" d="M98.2902 28.1437C98.2902 29.979 97.1504 31.6557 95.4523 32.494L98.7324 37.9772H94.9635L92.0788 33.0607H90.4035V37.9772H86.8907V23.0003H93.0326C95.9408 23.0003 98.2902 25.2886 98.2902 28.1437ZM90.3803 30.0695H93.0092C93.963 30.0695 94.7542 29.2313 94.7542 28.1437C94.7542 27.056 93.963 26.2179 93.0092 26.2179H90.3803V30.0695Z" fill="black"/>
<path fill-rule="evenodd" clip-rule="evenodd" d="M115.902 23.0003H121.555C125.79 23.0003 129 26.2404 129 30.4548C129 34.6917 125.766 37.9318 121.555 37.9318H115.902V23.0003ZM119.415 34.7599H121.555C123.975 34.7599 125.627 33.0379 125.627 30.4773C125.627 27.9171 123.952 26.2179 121.555 26.2179H119.415V34.7599Z" fill="black"/>
</svg>
