<svg width="160" height="64" viewBox="0 0 160 64" fill="none" xmlns="http://www.w3.org/2000/svg">
<rect x="0.5" y="0.5" width="159" height="63" rx="3.5" fill="white" stroke="#D9D9D9"/>
<path d="M25.064 37.2275C25.064 37.7125 25.0102 38.1437 24.8485 38.467C24.7407 38.8443 24.5252 39.1138 24.3096 39.3832C24.0941 39.6527 23.8247 39.8682 23.5014 40.0299C23.1781 40.1916 22.8547 40.2994 22.4775 40.4072C22.1004 40.515 21.6693 40.5689 21.2382 40.6227C20.8071 40.6766 20.376 40.6766 19.8911 40.6766H11V28.2813H19.7833C20.1605 28.2813 20.4838 28.2813 20.861 28.3352C21.2382 28.3891 21.5615 28.443 21.8848 28.4969C22.2081 28.6046 22.5314 28.7124 22.8009 28.8202C23.0703 28.9819 23.3397 29.1436 23.5553 29.413C23.7708 29.6286 23.9324 29.952 24.0402 30.2753C24.148 30.5987 24.2019 30.9759 24.2019 31.461C24.2019 32.2694 23.9863 32.9161 23.6091 33.3472C23.2319 33.8323 22.5853 34.1556 21.7232 34.2634C22.3159 34.3173 22.8547 34.3712 23.2858 34.5329C23.7169 34.6945 24.0402 34.8562 24.3096 35.1257C24.5791 35.3951 24.7946 35.6646 24.9024 36.0419C25.0102 36.3652 25.064 36.7425 25.064 37.2275ZM20.9149 31.946C20.9149 31.7843 20.9149 31.6226 20.861 31.5149C20.8071 31.3532 20.6993 31.2454 20.5916 31.1376C20.4838 31.0298 20.2683 30.922 20.0527 30.8681C19.8372 30.8143 19.5677 30.7604 19.2444 30.7604H14.3409V33.0778H19.2444C19.5677 33.0778 19.8372 33.0239 20.0527 32.97C20.2683 32.9161 20.4299 32.8083 20.5916 32.7005C20.6993 32.5927 20.8071 32.4849 20.861 32.3233C20.9149 32.2155 20.9149 32.1077 20.9149 31.946ZM21.6693 36.8503C21.6693 36.5808 21.6154 36.3652 21.5076 36.1496C21.3998 35.988 21.2382 35.8263 21.0765 35.7724C20.861 35.6646 20.5916 35.6107 20.2683 35.6107C19.9449 35.5568 19.5677 35.5568 19.0828 35.5568H14.287V38.1976H19.0828C19.5139 38.1976 19.9449 38.1976 20.2683 38.1437C20.5916 38.0898 20.861 38.0359 21.0765 37.9281C21.2921 37.8203 21.4537 37.7125 21.5076 37.5509C21.6693 37.3353 21.6693 37.1197 21.6693 36.8503ZM40.7985 40.0299C39.7747 40.3533 38.7509 40.6227 37.7809 40.7305C36.7571 40.8922 35.7333 40.9461 34.7095 40.9461C33.3624 40.9461 32.1769 40.7844 31.0992 40.515C30.0215 40.2455 29.1593 39.8144 28.4588 39.2754C27.7583 38.7365 27.1656 38.0359 26.7884 37.2275C26.4112 36.4191 26.1956 35.5029 26.1956 34.5329C26.1956 33.6167 26.4112 32.7544 26.7884 31.946C27.1656 31.1376 27.7044 30.437 28.4049 29.8442C29.1054 29.2514 29.9676 28.7663 30.9375 28.443C31.9075 28.1196 33.039 27.9579 34.2245 27.9579C35.3561 27.9579 36.3799 28.1196 37.296 28.3891C38.212 28.7124 39.0203 29.1436 39.7208 29.7364C40.3674 30.3292 40.9063 31.0837 41.2835 31.946C41.6607 32.8083 41.8223 33.8323 41.8223 34.964V35.7724H29.6443C29.752 36.1496 29.9137 36.5269 30.1831 36.8503C30.4526 37.1736 30.7759 37.4431 31.2069 37.6586C31.638 37.8742 32.1769 38.0359 32.7696 38.1976C33.4162 38.3054 34.1168 38.4131 34.9789 38.4131C35.5716 38.4131 36.1644 38.3592 36.7571 38.3054C37.3499 38.2515 37.8887 38.1437 38.4276 37.982C38.9125 37.8742 39.3975 37.7125 39.8286 37.5509C40.2597 37.3892 40.583 37.2275 40.7985 37.1197V40.0299ZM38.4815 33.3472C38.4276 33.0239 38.3737 32.7005 38.212 32.3771C38.0504 32.0538 37.8348 31.7304 37.5115 31.5149C37.1882 31.2454 36.7571 31.0298 36.2183 30.8681C35.6794 30.7065 35.0328 30.5987 34.2245 30.5987C33.4701 30.5987 32.8235 30.7065 32.2847 30.8681C31.7458 31.0298 31.2608 31.2993 30.9375 31.5688C30.5603 31.8382 30.2909 32.1616 30.0754 32.4849C29.8598 32.8083 29.752 33.0778 29.6982 33.3472H38.4815ZM55.6169 28.2813L58.7962 36.8503L62.1909 28.2813H65.6396L60.6822 40.6227H56.9641L53.731 32.3233L50.4979 40.6227H46.7798L41.8223 28.2813H45.3249L48.6658 36.6886L51.8989 28.2813H55.6169ZM77.1171 40.6227V39.3832C76.6861 39.5988 76.255 39.8144 75.77 40.0299C75.285 40.1916 74.8001 40.3533 74.2612 40.515C73.7224 40.6227 73.1835 40.7305 72.6447 40.7844C72.1058 40.8383 71.5131 40.8922 70.9742 40.8922C70.3276 40.8922 69.681 40.8383 69.0344 40.6766C68.3877 40.5689 67.8489 40.3533 67.3639 40.0838C66.8789 39.8144 66.5018 39.4371 66.2323 38.9521C65.9629 38.5209 65.8012 37.9281 65.8012 37.2814C65.8012 36.473 66.0168 35.7724 66.5018 35.1796C66.9328 34.6406 67.6333 34.1556 68.6033 33.8323C69.5193 33.455 70.7048 33.1855 72.1597 33.0239C73.6146 32.8083 75.285 32.7005 77.2249 32.5927V32.3233C77.2249 32.1077 77.171 31.8921 77.0632 31.7304C76.9555 31.5149 76.7399 31.3532 76.4705 31.1915C76.2011 31.0298 75.77 30.922 75.285 30.8143C74.8001 30.7065 74.1535 30.6526 73.3991 30.6526C72.8063 30.6526 72.2136 30.7065 71.6208 30.7604C71.0281 30.8143 70.4354 30.922 69.8965 31.0298C69.3577 31.1376 68.8188 31.2454 68.3339 31.4071C67.8489 31.5688 67.4178 31.6765 66.9867 31.8382V28.8741C67.4178 28.7663 67.9028 28.6585 68.3877 28.5508C68.9266 28.443 69.4654 28.3352 70.0043 28.2813C70.5431 28.2274 71.1359 28.1196 71.7286 28.1196C72.3214 28.0657 72.8602 28.0657 73.3991 28.0657C74.4229 28.0657 75.3928 28.1735 76.255 28.3352C77.1171 28.4969 77.8715 28.7663 78.5182 29.1436C79.1648 29.5208 79.6497 29.952 80.0269 30.4909C80.4041 31.0298 80.5658 31.6765 80.5658 32.4849V40.6766H77.1171V40.6227ZM77.1171 34.964C75.8239 35.0179 74.7462 35.0718 73.8301 35.1796C72.9141 35.2874 72.2136 35.3951 71.6208 35.5029C71.0281 35.6107 70.5431 35.7724 70.2198 35.8802C69.8965 36.0419 69.6271 36.1496 69.4654 36.3113C69.3038 36.473 69.196 36.5808 69.1421 36.7425C69.0882 36.9041 69.0882 37.0119 69.0882 37.1197C69.0882 37.2814 69.1421 37.3892 69.196 37.5509C69.2499 37.6586 69.4116 37.8203 69.6271 37.9281C69.8426 38.0359 70.0582 38.0898 70.3815 38.1976C70.7048 38.2515 71.1359 38.3054 71.6208 38.3054C72.1597 38.3054 72.6986 38.2515 73.2374 38.1976C73.7763 38.0898 74.2612 37.982 74.7462 37.8742C75.2312 37.7125 75.6622 37.5509 76.0394 37.3353C76.4705 37.1197 76.7938 36.9041 77.1171 36.6886V34.964ZM94.8993 40.6227C94.8454 39.976 94.6837 39.3832 94.4143 38.8443C94.1449 38.3592 93.8215 37.9281 93.4444 37.5509C93.0672 37.1736 92.5822 36.9041 92.0972 36.6347C91.6123 36.4191 91.0734 36.2035 90.5346 36.0419C89.9957 35.8802 89.4568 35.8263 88.9719 35.7185C88.433 35.6646 87.9481 35.6107 87.517 35.6107H86.547V40.5689H83.2062V28.2813H86.547V33.0239H87.2476C87.7325 33.0239 88.2175 32.97 88.7025 32.9161C89.1874 32.8622 89.7263 32.7544 90.2112 32.5927C90.6962 32.431 91.1812 32.2155 91.6123 31.9999C92.0433 31.7304 92.4744 31.461 92.8516 31.0837C93.2288 30.7065 93.4982 30.3292 93.7677 29.8442C93.9832 29.3591 94.1449 28.8741 94.1987 28.2813H97.5935C97.5396 28.928 97.378 29.5208 97.2163 30.0598C97.0008 30.5987 96.7852 31.0837 96.4619 31.461C96.1386 31.8921 95.8153 32.2155 95.492 32.5388C95.1148 32.8622 94.7376 33.1316 94.3604 33.3472C93.9832 33.5628 93.606 33.7784 93.2288 33.8861C92.8516 34.0478 92.4744 34.1556 92.1511 34.2095C92.5822 34.2634 93.0133 34.3712 93.4444 34.5329C93.8754 34.6945 94.3604 34.8562 94.7915 35.0718C95.2226 35.2874 95.6536 35.6107 96.0847 35.9341C96.5158 36.2574 96.8391 36.6886 97.1624 37.1197C97.4857 37.5509 97.7552 38.0898 97.9707 38.6826C98.1862 39.2754 98.3479 39.9221 98.4018 40.6227H94.8993ZM141.672 30.922C141.294 30.922 140.917 30.922 140.648 30.9759C140.324 31.0298 140.055 31.0837 139.84 31.1915C139.624 31.2993 139.462 31.461 139.355 31.6765C139.247 31.8921 139.193 32.2155 139.193 32.5927V33.0778H148.515V35.7185H139.193V40.6766H135.852V32.3233C135.852 31.6765 135.96 31.1376 136.121 30.5987C136.337 30.1136 136.606 29.6825 137.091 29.3053C137.522 28.9819 138.115 28.7124 138.87 28.4969C139.624 28.3352 140.486 28.2274 141.618 28.2274H149V30.8681H141.672V30.922ZM116.13 34.3712C116.13 35.449 115.914 36.4191 115.537 37.2275C115.16 38.0359 114.567 38.7365 113.813 39.3293C113.059 39.8682 112.196 40.2994 111.119 40.5689C110.041 40.8383 108.856 41 107.562 41C106.269 41 105.03 40.8383 104.006 40.5689C102.928 40.2994 102.012 39.8682 101.312 39.3293C100.557 38.7904 99.9645 38.0898 99.5873 37.2275C99.1562 36.4191 98.9945 35.449 98.9945 34.3712C98.9945 33.2933 99.2101 32.3233 99.5873 31.5149C100.018 30.7065 100.557 30.0059 101.312 29.413C102.066 28.8741 102.982 28.443 104.006 28.1735C105.084 27.904 106.269 27.7424 107.562 27.7424C108.856 27.7424 110.041 27.904 111.119 28.1735C112.196 28.443 113.059 28.8741 113.813 29.413C114.567 29.952 115.106 30.6526 115.537 31.5149C115.914 32.3233 116.13 33.2933 116.13 34.3712ZM134.397 34.3712C134.397 35.449 134.182 36.4191 133.804 37.2275C133.427 38.0359 132.834 38.7365 132.08 39.3293C131.326 39.8682 130.463 40.2994 129.386 40.5689C128.308 40.8383 127.123 41 125.829 41C124.536 41 123.297 40.8383 122.273 40.5689C121.195 40.2994 120.279 39.8682 119.579 39.3293C118.824 38.7904 118.232 38.0898 117.854 37.2275C117.423 36.4191 117.262 35.449 117.262 34.3712C117.262 33.2933 117.477 32.3233 117.854 31.5149C118.285 30.7065 118.824 30.0059 119.579 29.413C120.333 28.8741 121.249 28.443 122.273 28.1735C123.351 27.904 124.536 27.7424 125.829 27.7424C127.123 27.7424 128.308 27.904 129.386 28.1735C130.463 28.443 131.326 28.8741 132.08 29.413C132.834 29.952 133.373 30.6526 133.804 31.5149C134.182 32.3233 134.397 33.2933 134.397 34.3712ZM133.319 28.2813L131.918 26.9879C130.679 25.91 129.062 25.3711 127.392 25.5866L124.913 25.91L124.59 23.377L127.069 23.0537C129.44 22.7842 131.811 23.5387 133.589 25.1016L134.99 26.395L133.319 28.2813Z" fill="black"/>
</svg>
