<svg width="160" height="64" viewBox="0 0 160 64" fill="none" xmlns="http://www.w3.org/2000/svg">
<rect x="0.5" y="0.5" width="159" height="63" rx="3.5" fill="white" stroke="#D9D9D9"/>
<path d="M28.9342 32.5H24.2007V27.55H28.9342C30.318 27.55 31.4402 28.6582 31.4402 30.025C31.4402 31.3918 30.318 32.5 28.9342 32.5Z" fill="#FF6154"/>
<path fill-rule="evenodd" clip-rule="evenodd" d="M26 48C34.8366 48 42 40.8366 42 32C42 23.1634 34.8366 16 26 16C17.1634 16 10 23.1634 10 32C10 40.8366 17.1634 48 26 48ZM28.9342 24.25H20.8594V40.75H24.2007V35.8H28.9342C32.1641 35.8 34.7815 33.215 34.7815 30.025C34.7815 26.835 32.1641 24.25 28.9342 24.25Z" fill="#FF6154"/>
<path fill-rule="evenodd" clip-rule="evenodd" d="M57.1072 27H52V38H54.325V33.9492H57.1072C59.4656 33.9492 60.7747 32.3776 60.7747 30.4829C60.7747 28.5881 59.4822 27 57.1072 27ZM56.7806 29.024C57.6976 29.024 58.4021 29.5751 58.4024 30.4822C58.4021 31.3728 57.6962 31.9239 56.7806 31.9239H54.325V29.024H56.7806Z" fill="#FF6154"/>
<path d="M62.1892 38V29.981H64.2682V31.0342C64.8421 30.3536 65.808 29.7871 66.7905 29.7871V31.796C66.6432 31.763 66.4626 31.7479 66.2166 31.7479C65.5287 31.7479 64.6115 32.137 64.2668 32.6389V38.0014H62.1878L62.1892 38Z" fill="#FF6154"/>
<path fill-rule="evenodd" clip-rule="evenodd" d="M71.7546 29.7858C69.1503 29.7858 67.5785 31.6654 67.5785 33.8846C67.5785 36.1039 69.135 38 71.7546 38C74.3742 38 75.946 36.1039 75.946 33.8846C75.946 31.6654 74.3589 29.7858 71.7546 29.7858ZM71.7546 31.6159C73.0637 31.6159 73.785 32.6691 73.785 33.8846C73.785 35.1153 73.0498 36.1685 71.7546 36.1685C70.4594 36.1685 69.7395 35.1001 69.7395 33.8846C69.7395 32.6691 70.4455 31.6159 71.7546 31.6159Z" fill="#FF6154"/>
<path fill-rule="evenodd" clip-rule="evenodd" d="M82.942 38V36.801C82.3194 37.5793 81.4689 38 80.5016 38C78.5199 38 76.9981 36.5095 76.9981 33.8846C76.9981 31.2598 78.4893 29.7858 80.5016 29.7858C81.4355 29.7858 82.3194 30.1749 82.942 30.9848V27H85.0376V38H82.942ZM82.942 35.2775V32.5069C82.5973 31.9885 81.8441 31.6159 81.1562 31.6159C79.961 31.6159 79.1425 32.5399 79.1425 33.8846C79.1425 35.2294 79.961 36.1685 81.1562 36.1685C81.8441 36.1685 82.5973 35.7959 82.942 35.2775Z" fill="#FF6154"/>
<path d="M92.4449 36.8175V38H94.5267V29.981H92.4463V35.2789C92.0864 35.7326 91.4485 36.1699 90.6453 36.1699C89.7614 36.1699 89.1874 35.8138 89.1874 34.7275V29.981H87.1084V35.5374C87.1084 37.0595 87.927 38 89.6627 38C90.9552 38 91.9043 37.4005 92.4449 36.8175Z" fill="#FF6154"/>
<path d="M96.086 33.8839C96.0863 31.4863 97.8539 29.7858 100.277 29.7858C101.899 29.7858 102.882 30.4829 103.406 31.1951L102.045 32.4587C101.668 31.9074 101.096 31.6159 100.376 31.6159C99.1142 31.6159 98.2303 32.5234 98.2303 33.8846C98.2303 35.2459 99.1142 36.1685 100.376 36.1685C101.096 36.1685 101.67 35.844 102.045 35.3091L103.406 36.5728C102.882 37.2864 101.899 37.9986 100.277 37.9986C97.8539 37.9986 96.0863 36.2981 96.086 33.8839Z" fill="#FF6154"/>
<path d="M105.193 31.7795V35.8454L105.194 35.8468C105.194 37.2561 105.963 38.0014 107.42 38.0014C108.288 38.0014 108.845 37.7745 109.156 37.4981L108.713 35.9265C108.6 36.0558 108.304 36.1699 107.993 36.1699C107.534 36.1699 107.273 35.7973 107.273 35.2954V31.7795H108.877V29.981H107.273V27.8429H105.193V29.981H103.884V31.7795H105.193Z" fill="#FF6154"/>
<path d="M122.196 38V33.2535H117.037V38H114.714V27H117.037V31.2446H122.196V27H124.538V38H122.196Z" fill="#FF6154"/>
<path d="M131.978 36.8175V38H134.06V29.981H131.979V35.2789C131.619 35.7326 130.982 36.1699 130.178 36.1699C129.295 36.1699 128.721 35.8138 128.721 34.7275V29.981H126.642V35.5374C126.642 37.0595 127.46 38 129.196 38C130.488 38 131.437 37.4005 131.978 36.8175Z" fill="#FF6154"/>
<path d="M141.463 37.9986V33.0748C141.463 31.9885 140.89 31.6159 140.005 31.6159C139.187 31.6159 138.565 32.0696 138.204 32.5234V37.9986H136.125V29.9796H138.204V30.9848C138.713 30.4018 139.695 29.7858 140.972 29.7858C142.725 29.7858 143.559 30.7579 143.559 32.28V37.9986H141.463Z" fill="#FF6154"/>
<path d="M146.036 31.7795V35.8454L146.038 35.8468C146.038 37.2561 146.806 38.0014 148.264 38.0014C149.131 38.0014 149.689 37.7745 150 37.4981L149.558 35.9265C149.444 36.0558 149.148 36.1699 148.837 36.1699C148.378 36.1699 148.117 35.7973 148.117 35.2954V31.7795H149.721V29.981H148.117V27.8429H146.036V29.981H144.727V31.7795H146.036Z" fill="#FF6154"/>
</svg>
