<svg width="288" height="96" viewBox="0 0 288 96" fill="none" xmlns="http://www.w3.org/2000/svg">
<rect x="1" y="0.5" width="286" height="95" rx="5.5" fill="white" stroke="#D9D9D9"/>
<path d="M41.5396 59.44C39.7396 59.44 38.3618 58.9289 37.4062 57.9067C36.4507 56.8844 35.9729 55.44 35.9729 53.5733V41.5067C35.9729 37.4622 37.8396 35.44 41.5729 35.44C43.3507 35.44 44.7062 35.9511 45.6396 36.9733C46.5729 37.9733 47.0396 39.4178 47.0396 41.3067V41.74H43.5729V41.0733C43.5729 39.54 42.9396 38.7733 41.6729 38.7733C40.984 38.7733 40.4729 38.9844 40.1396 39.4067C39.8062 39.8289 39.6396 40.5733 39.6396 41.64V46.1067H39.7062C40.3507 44.7511 41.4618 44.0733 43.0396 44.0733C44.3729 44.0733 45.384 44.5289 46.0729 45.44C46.7618 46.3511 47.1062 47.6733 47.1062 49.4067V53.5733C47.1062 55.44 46.6285 56.8844 45.6729 57.9067C44.7173 58.9289 43.3396 59.44 41.5396 59.44ZM41.5396 56.1067C42.8062 56.1067 43.4396 55.3511 43.4396 53.84V49.7067C43.4396 48.1733 42.8062 47.4067 41.5396 47.4067C40.2729 47.4067 39.6396 48.1733 39.6396 49.7067V53.84C39.6396 55.3511 40.2729 56.1067 41.5396 56.1067Z" fill="black"/>
<path d="M54.9526 54.8733H47.9526V51.54L54.6193 35.7733H58.6193V51.54H60.3526V54.8733H58.6193V59.1067H54.9526V54.8733ZM54.9526 51.54V42.44H54.8859L51.2859 51.54H54.9526Z" fill="black"/>
<path d="M66.7989 59.44C64.9989 59.44 63.6212 58.9289 62.6656 57.9067C61.7101 56.8844 61.2323 55.44 61.2323 53.5733V41.3067C61.2323 39.44 61.7101 37.9956 62.6656 36.9733C63.6212 35.9511 64.9989 35.44 66.7989 35.44C68.5989 35.44 69.9767 35.9511 70.9323 36.9733C71.8878 37.9956 72.3656 39.44 72.3656 41.3067V53.5733C72.3656 55.44 71.8878 56.8844 70.9323 57.9067C69.9767 58.9289 68.5989 59.44 66.7989 59.44ZM66.7989 56.1067C68.0656 56.1067 68.6989 55.34 68.6989 53.8067V41.0733C68.6989 39.54 68.0656 38.7733 66.7989 38.7733C65.5323 38.7733 64.8989 39.54 64.8989 41.0733V53.8067C64.8989 55.34 65.5323 56.1067 66.7989 56.1067Z" fill="black"/>
<path d="M84.1505 59.44C82.3505 59.44 80.9727 58.9289 80.0172 57.9067C79.0616 56.8844 78.5838 55.44 78.5838 53.5733V41.3067C78.5838 39.44 79.0616 37.9956 80.0172 36.9733C80.9727 35.9511 82.3505 35.44 84.1505 35.44C85.9505 35.44 87.3283 35.9511 88.2838 36.9733C89.2394 37.9956 89.7172 39.44 89.7172 41.3067V53.5733C89.7172 55.44 89.2394 56.8844 88.2838 57.9067C87.3283 58.9289 85.9505 59.44 84.1505 59.44ZM84.1505 56.1067C85.4172 56.1067 86.0505 55.34 86.0505 53.8067V41.0733C86.0505 39.54 85.4172 38.7733 84.1505 38.7733C82.8838 38.7733 82.2505 39.54 82.2505 41.0733V53.8067C82.2505 55.34 82.8838 56.1067 84.1505 56.1067Z" fill="black"/>
<path d="M94.2427 47.1733L90.2094 35.7733H94.076L96.5427 43.3067H96.6094L99.1427 35.7733H102.609L98.576 47.1733L102.809 59.1067H98.9427L96.276 50.9733H96.2094L93.476 59.1067H90.0094L94.2427 47.1733Z" fill="black"/>
<path d="M103.884 35.7733H113.584V39.1067H107.551V45.6067H112.284V48.94H107.551V59.1067H103.884V35.7733Z" fill="black"/>
<path d="M119.976 59.44C118.176 59.44 116.798 58.9289 115.843 57.9067C114.887 56.8844 114.409 55.44 114.409 53.5733V41.3067C114.409 39.44 114.887 37.9956 115.843 36.9733C116.798 35.9511 118.176 35.44 119.976 35.44C121.776 35.44 123.154 35.9511 124.109 36.9733C125.065 37.9956 125.543 39.44 125.543 41.3067V53.5733C125.543 55.44 125.065 56.8844 124.109 57.9067C123.154 58.9289 121.776 59.44 119.976 59.44ZM119.976 56.1067C121.243 56.1067 121.876 55.34 121.876 53.8067V41.0733C121.876 39.54 121.243 38.7733 119.976 38.7733C118.709 38.7733 118.076 39.54 118.076 41.0733V53.8067C118.076 55.34 118.709 56.1067 119.976 56.1067Z" fill="black"/>
<path d="M127.356 35.7733H132.789C134.678 35.7733 136.056 36.2178 136.922 37.1067C137.789 37.9733 138.222 39.3178 138.222 41.14V42.5733C138.222 44.9956 137.422 46.5289 135.822 47.1733V47.24C136.711 47.5067 137.333 48.0511 137.689 48.8733C138.067 49.6956 138.256 50.7956 138.256 52.1733V56.2733C138.256 56.94 138.278 57.4844 138.322 57.9067C138.367 58.3067 138.478 58.7067 138.656 59.1067H134.922C134.789 58.7289 134.7 58.3733 134.656 58.04C134.611 57.7067 134.589 57.1067 134.589 56.24V51.9733C134.589 50.9067 134.411 50.1622 134.056 49.74C133.722 49.3178 133.133 49.1067 132.289 49.1067H131.022V59.1067H127.356V35.7733ZM132.356 45.7733C133.089 45.7733 133.633 45.5844 133.989 45.2067C134.367 44.8289 134.556 44.1956 134.556 43.3067V41.5067C134.556 40.6622 134.4 40.0511 134.089 39.6733C133.8 39.2956 133.333 39.1067 132.689 39.1067H131.022V45.7733H132.356Z" fill="black"/>
<path d="M140.133 35.7733H145.733C147.555 35.7733 148.922 36.2622 149.833 37.24C150.744 38.2178 151.2 39.6511 151.2 41.54V53.34C151.2 55.2289 150.744 56.6622 149.833 57.64C148.922 58.6178 147.555 59.1067 145.733 59.1067H140.133V35.7733ZM145.666 55.7733C146.266 55.7733 146.722 55.5956 147.033 55.24C147.366 54.8844 147.533 54.3067 147.533 53.5067V41.3733C147.533 40.5733 147.366 39.9956 147.033 39.64C146.722 39.2844 146.266 39.1067 145.666 39.1067H143.8V55.7733H145.666Z" fill="black"/>
<path d="M156.713 35.7733H160.413L162.813 53.8733H162.88L165.28 35.7733H168.647L165.113 59.1067H160.247L156.713 35.7733Z" fill="black"/>
<path d="M169.741 35.7733H179.741V39.1067H173.408V45.2733H178.441V48.6067H173.408V55.7733H179.741V59.1067H169.741V35.7733Z" fill="black"/>
<path d="M181.184 35.7733H185.784L189.35 49.74H189.417V35.7733H192.684V59.1067H188.917L184.517 42.0733H184.45V59.1067H181.184V35.7733Z" fill="black"/>
<path d="M197.609 39.1067H193.776V35.7733H205.109V39.1067H201.276V59.1067H197.609V39.1067Z" fill="black"/>
<path d="M211.551 59.44C209.773 59.44 208.418 58.94 207.484 57.94C206.551 56.9178 206.084 55.4622 206.084 53.5733V35.7733H209.751V53.84C209.751 54.64 209.907 55.2178 210.218 55.5733C210.551 55.9289 211.018 56.1067 211.618 56.1067C212.218 56.1067 212.673 55.9289 212.984 55.5733C213.318 55.2178 213.484 54.64 213.484 53.84V35.7733H217.018V53.5733C217.018 55.4622 216.551 56.9178 215.618 57.94C214.684 58.94 213.329 59.44 211.551 59.44Z" fill="black"/>
<path d="M218.962 35.7733H224.396C226.285 35.7733 227.662 36.2178 228.529 37.1067C229.396 37.9733 229.829 39.3178 229.829 41.14V42.5733C229.829 44.9956 229.029 46.5289 227.429 47.1733V47.24C228.318 47.5067 228.94 48.0511 229.296 48.8733C229.674 49.6956 229.862 50.7956 229.862 52.1733V56.2733C229.862 56.94 229.885 57.4844 229.929 57.9067C229.974 58.3067 230.085 58.7067 230.262 59.1067H226.529C226.396 58.7289 226.307 58.3733 226.262 58.04C226.218 57.7067 226.196 57.1067 226.196 56.24V51.9733C226.196 50.9067 226.018 50.1622 225.662 49.74C225.329 49.3178 224.74 49.1067 223.896 49.1067H222.629V59.1067H218.962V35.7733ZM223.962 45.7733C224.696 45.7733 225.24 45.5844 225.596 45.2067C225.974 44.8289 226.162 44.1956 226.162 43.3067V41.5067C226.162 40.6622 226.007 40.0511 225.696 39.6733C225.407 39.2956 224.94 39.1067 224.296 39.1067H222.629V45.7733H223.962Z" fill="black"/>
<path d="M231.74 35.7733H241.74V39.1067H235.406V45.2733H240.44V48.6067H235.406V55.7733H241.74V59.1067H231.74V35.7733Z" fill="black"/>
<path d="M248.014 59.44C246.236 59.44 244.892 58.94 243.981 57.94C243.07 56.9178 242.614 55.4622 242.614 53.5733V52.24H246.081V53.84C246.081 55.3511 246.714 56.1067 247.981 56.1067C248.603 56.1067 249.07 55.9289 249.381 55.5733C249.714 55.1956 249.881 54.5956 249.881 53.7733C249.881 52.7956 249.659 51.94 249.214 51.2067C248.77 50.4511 247.948 49.5511 246.748 48.5067C245.236 47.1733 244.181 45.9733 243.581 44.9067C242.981 43.8178 242.681 42.5956 242.681 41.24C242.681 39.3956 243.148 37.9733 244.081 36.9733C245.014 35.9511 246.37 35.44 248.148 35.44C249.903 35.44 251.225 35.9511 252.114 36.9733C253.025 37.9733 253.481 39.4178 253.481 41.3067V42.2733H250.014V41.0733C250.014 40.2733 249.859 39.6956 249.548 39.34C249.236 38.9622 248.781 38.7733 248.181 38.7733C246.959 38.7733 246.348 39.5178 246.348 41.0067C246.348 41.8511 246.57 42.64 247.014 43.3733C247.481 44.1067 248.314 44.9956 249.514 46.04C251.048 47.3733 252.103 48.5844 252.681 49.6733C253.259 50.7622 253.548 52.04 253.548 53.5067C253.548 55.4178 253.07 56.8844 252.114 57.9067C251.181 58.9289 249.814 59.44 248.014 59.44Z" fill="black"/>
</svg>
