<svg width="160" height="64" viewBox="0 0 160 64" fill="none" xmlns="http://www.w3.org/2000/svg">
<rect x="0.5" y="0.5" width="159" height="63" rx="3.5" fill="white" stroke="#D9D9D9"/>
<g clip-path="url(#clip0_4278_156813)">
<path fill-rule="evenodd" clip-rule="evenodd" d="M46.321 28.1589C46.7887 26.4089 46.5949 25.0646 45.7402 24.13C44.8846 23.1935 43.3867 22.7267 41.2472 22.7267H33.0395L28.0989 41.2355H32.0865L34.0785 33.7752H36.6933C37.2797 33.7752 37.742 33.8692 38.0796 34.06C38.4171 34.2508 38.6159 34.5907 38.6766 35.074L39.3876 41.2355H43.6605L42.9671 35.4904C42.8261 34.2091 42.2416 33.4547 41.2144 33.23C42.5244 32.8474 43.621 32.215 44.5046 31.3308C45.3871 30.4475 45.9931 29.3889 46.321 28.1589ZM42.5138 28.2635C42.2918 29.0965 41.8606 29.7066 41.2221 30.0959C40.5825 30.4853 39.6846 30.6809 38.528 30.6809H34.8511L36.1416 25.8462H39.8187C40.9751 25.8462 41.769 26.0399 42.2002 26.4312C42.6303 26.8205 42.7355 27.4306 42.5138 28.2635Z" fill="#162C52"/>
<path fill-rule="evenodd" clip-rule="evenodd" d="M57.761 28.0553L57.2612 29.9274C57.0452 29.2505 56.6276 28.7149 56.0093 28.3159C55.39 27.9159 54.6232 27.7183 53.7088 27.7183C52.586 27.7183 51.5077 28.0079 50.4725 28.588C49.4376 29.1681 48.5328 29.9894 47.7582 31.0451C46.9845 32.1017 46.4173 33.3065 46.0556 34.6576C45.695 36.0115 45.6227 37.2018 45.8395 38.2332C46.0566 39.2647 46.5275 40.0579 47.2507 40.6128C47.9743 41.1658 48.9059 41.4438 50.0453 41.4438C50.9597 41.4438 51.8316 41.253 52.6584 40.8704C53.4849 40.4918 54.1862 39.961 54.764 39.2869L54.2432 41.2356H58.1006L61.6184 28.0553H57.761ZM56.0122 34.6053C55.6794 35.8556 55.1662 36.8076 54.4726 37.4672C53.7792 38.1238 52.9488 38.4531 51.983 38.4531C50.9982 38.4531 50.3298 38.1286 49.9776 37.4788C49.6238 36.8299 49.6112 35.8895 49.9401 34.6576C50.268 33.4276 50.7918 32.4659 51.5123 31.7714C52.2329 31.08 53.0759 30.7332 54.0424 30.7332C55.0089 30.7332 55.6631 31.0674 56.0026 31.7347C56.3421 32.401 56.3459 33.3588 56.0122 34.6053Z" fill="#162C52"/>
<path fill-rule="evenodd" clip-rule="evenodd" d="M75.4894 28.0553H64.2778L63.4948 30.9927H70.019L61.3929 38.4811L60.6567 41.2355H72.2301L73.0151 38.2971H66.0249L74.7814 30.708L75.4894 28.0553Z" fill="#162C52"/>
<path fill-rule="evenodd" clip-rule="evenodd" d="M87.6171 28.5483C86.7286 27.9953 85.5954 27.7183 84.2141 27.7183C82.8154 27.7183 81.521 27.9953 80.3278 28.5483C79.1353 29.1042 78.1197 29.9023 77.2823 30.9415C76.4433 31.9797 75.8395 33.1951 75.4691 34.5811C75.0987 35.967 75.0552 37.1795 75.3397 38.2206C75.6234 39.2589 76.2119 40.0579 77.1087 40.6128C78.0059 41.1658 79.1529 41.4438 80.5505 41.4438C81.9319 41.4438 83.2137 41.1658 84.3983 40.6128C85.5808 40.0579 86.5928 39.2589 87.4309 38.2206C88.2692 37.1795 88.873 35.967 89.2434 34.5811C89.6138 33.1951 89.6572 31.9797 89.3735 30.9415C89.0891 29.9023 88.5036 29.1042 87.6171 28.5483ZM85.3598 34.5811C85.0126 35.8798 84.4985 36.8522 83.8185 37.4914C83.1384 38.1335 82.3156 38.4531 81.3491 38.4531C79.3294 38.4531 78.6637 37.164 79.3534 34.5811C79.6959 33.2988 80.213 32.3322 80.9036 31.6824C81.5941 31.0325 82.4314 30.7081 83.4152 30.7081C84.3817 30.7081 85.0339 31.0325 85.3695 31.6824C85.7053 32.3322 85.7023 33.2988 85.3598 34.5811Z" fill="#162C52"/>
<path fill-rule="evenodd" clip-rule="evenodd" d="M129.713 28.0553L129.214 29.9274C128.998 29.2505 128.58 28.7149 127.962 28.3159C127.343 27.9159 126.576 27.7183 125.66 27.7183C124.539 27.7183 123.46 28.0079 122.425 28.588C121.39 29.1681 120.485 29.9894 119.711 31.0451C118.937 32.1017 118.369 33.3065 118.008 34.6576C117.647 36.0115 117.576 37.2018 117.792 38.2332C118.009 39.2647 118.479 40.0579 119.203 40.6128C119.927 41.1658 120.859 41.4438 121.998 41.4438C122.912 41.4438 123.783 41.253 124.61 40.8704C125.436 40.4918 126.139 39.961 126.717 39.2869L126.196 41.2356H130.053L133.571 28.0553H129.713ZM127.965 34.6053C127.632 35.8556 127.119 36.8076 126.425 37.4672C125.733 38.1238 124.9 38.4531 123.935 38.4531C122.951 38.4531 122.282 38.1286 121.929 37.4788C121.576 36.8299 121.564 35.8895 121.893 34.6576C122.221 33.4276 122.744 32.4659 123.465 31.7714C124.185 31.08 125.028 30.7332 125.995 30.7332C126.961 30.7332 127.616 31.0674 127.955 31.7347C128.294 32.401 128.298 33.3588 127.965 34.6053Z" fill="#162C52"/>
<path fill-rule="evenodd" clip-rule="evenodd" d="M101.371 31.5903L102.354 28.003C102.02 27.8297 101.578 27.7425 101.026 27.7425C100.145 27.7425 99.2963 27.9633 98.4792 28.4069C97.7782 28.7865 97.1801 29.3173 96.6756 29.9836L97.1868 28.0524L96.0699 28.0553H93.3304L89.7864 41.2355H93.6968L95.5355 34.3476C95.8034 33.3414 96.284 32.5578 96.9784 31.9952C97.672 31.4324 98.5373 31.1497 99.5732 31.1497C100.212 31.1497 100.811 31.2959 101.371 31.5903Z" fill="#162C52"/>
<path fill-rule="evenodd" clip-rule="evenodd" d="M114.99 28.588C114.264 28.0079 113.34 27.7183 112.219 27.7183C111.235 27.7183 110.299 27.944 109.411 28.3924C108.522 28.8437 107.801 29.4587 107.248 30.2393L107.261 30.1531L107.918 28.0524H107.162V28.0553H104.1L103.128 31.6998C103.117 31.7424 103.108 31.7811 103.096 31.8238L99.0859 46.8508H102.996L105.015 39.2869C105.213 39.961 105.625 40.4918 106.248 40.8704C106.872 41.253 107.641 41.4438 108.556 41.4438C109.696 41.4438 110.779 41.1658 111.807 40.6109C112.835 40.0579 113.729 39.2647 114.488 38.2332C115.246 37.2018 115.805 36.0115 116.166 34.6576C116.527 33.3065 116.602 32.1017 116.393 31.0451C116.183 29.9865 115.715 29.1681 114.99 28.588ZM112.256 34.6576C111.928 35.8895 111.418 36.8299 110.728 37.4788C110.035 38.1286 109.208 38.4531 108.241 38.4531C107.275 38.4531 106.616 38.1238 106.265 37.4672C105.913 36.8076 105.905 35.8556 106.238 34.6053C106.571 33.3588 107.089 32.401 107.794 31.7347C108.499 31.0674 109.335 30.7332 110.301 30.7332C111.25 30.7332 111.895 31.08 112.237 31.7714C112.578 32.4659 112.585 33.4276 112.256 34.6576Z" fill="#162C52"/>
<path fill-rule="evenodd" clip-rule="evenodd" d="M149.763 28.0602L149.765 28.0553H147.397C147.321 28.0553 147.254 28.0573 147.186 28.0602H145.956L145.328 28.9376C145.276 29.0044 145.226 29.0713 145.172 29.1487L145.104 29.2504L140.108 36.2342L139.072 28.0553H134.98L137.052 40.4869L132.476 46.8507H136.554L137.662 45.2741C137.695 45.2268 137.723 45.1871 137.758 45.1375L139.052 43.2956L139.089 43.2433L144.88 35.0023L149.759 28.065L149.765 28.0602H149.763Z" fill="#162C52"/>
<path fill-rule="evenodd" clip-rule="evenodd" d="M18.0509 24.8467L16.8799 29.171L23.578 24.8225L19.1978 41.2307L23.6455 41.2355L30.116 17L18.0509 24.8467Z" fill="#4B89C8"/>
<path fill-rule="evenodd" clip-rule="evenodd" d="M10.8414 34.3379L9 41.2355H18.1173C18.1173 41.2355 21.8464 27.205 21.8474 27.2021C21.8435 27.205 10.8414 34.3379 10.8414 34.3379Z" fill="#162C52"/>
</g>
<defs>
<clipPath id="clip0_4278_156813">
<rect width="141" height="30" fill="white" transform="translate(9 17)"/>
</clipPath>
</defs>
</svg>
