<svg width="160" height="64" viewBox="0 0 160 64" fill="none" xmlns="http://www.w3.org/2000/svg">
<rect x="0.5" y="0.5" width="159" height="63" rx="3.5" fill="white" stroke="#D9D9D9"/>
<path d="M92.4296 20.265H83.7163L79.9987 27.5569L76.2801 20.265H67.5701L75.7057 36.2206V43.7339H84.2948V36.2206L92.4296 20.265Z" fill="#EA2629"/>
<path d="M102.884 20C96.2027 20 90.7678 25.3808 90.7678 31.9986C90.7678 38.6164 96.2024 44 102.884 44C109.566 44 115 38.6183 115 31.9986C115 25.3789 109.563 20 102.884 20ZM102.884 36.2783C100.503 36.2783 98.5655 34.3586 98.5655 31.9986C98.5655 29.6386 100.503 27.7206 102.884 27.7206C105.266 27.7206 107.203 29.6406 107.203 31.9986C107.203 34.3567 105.265 36.2783 102.884 36.2783Z" fill="#EA2629"/>
<path d="M57.1157 20C50.4346 20 45 25.3808 45 31.9986C45 38.6164 50.4346 44 57.1157 44C63.7967 44 69.2313 38.6183 69.2313 31.9986C69.2313 25.3789 63.7948 20 57.1157 20ZM57.1157 36.2783C54.7343 36.2783 52.7988 34.3586 52.7988 31.9986C52.7988 29.6386 54.7346 27.7206 57.1157 27.7206C59.4967 27.7206 61.4353 29.6406 61.4353 31.9986C61.4353 34.3567 59.4973 36.2783 57.1157 36.2783Z" fill="#EA2629"/>
</svg>
