<svg width="40" height="40" viewBox="0 0 40 40" fill="none" xmlns="http://www.w3.org/2000/svg">
<path d="M21.6667 16.6663V3.33301L5 23.333H16.6667L21.6667 16.6663Z" fill="#FAB73B" fill-opacity="0.4"/>
<path fill-rule="evenodd" clip-rule="evenodd" d="M22.4752 1.06338C22.866 1.20949 23.125 1.58285 23.125 2.00005V15H37C37.3918 15 37.7475 15.2288 37.91 15.5854C38.0725 15.9419 38.0118 16.3604 37.7547 16.6561L18.6297 38.6561C18.356 38.971 17.9156 39.0828 17.5248 38.9367C17.134 38.7906 16.875 38.4172 16.875 38V25H3.00002C2.60822 25 2.25252 24.7712 2.09005 24.4147C1.92758 24.0582 1.98827 23.6397 2.24532 23.344L21.3703 1.34397C21.644 1.02911 22.0845 0.917267 22.4752 1.06338ZM5.19437 23H17.875C18.4273 23 18.875 23.4478 18.875 24V35.3255L34.8057 17H22.125C21.5727 17 21.125 16.5523 21.125 16V4.67459L5.19437 23Z" fill="#1A181E"/>
</svg>
