<svg width="40" height="40" viewBox="0 0 40 40" fill="none" xmlns="http://www.w3.org/2000/svg">
<path d="M2 9C2 6.79086 3.79086 5 6 5H26C28.2091 5 30 6.79086 30 9V16H2V9Z" fill="#DF1E5B" fill-opacity="0.4"/>
<path fill-rule="evenodd" clip-rule="evenodd" d="M6 4C3.23858 4 1 6.23858 1 9V17V32C1 34.7614 3.23858 37 6 37H34C36.7614 37 39 34.7614 39 32V14C39 12.3431 37.6569 11 36 11H31V9C31 6.23858 28.7614 4 26 4H6ZM37 32C37 33.6569 35.6569 35 34 35C32.3431 35 31 33.6569 31 32V17V16.5V13H36C36.5523 13 37 13.4477 37 14V32ZM29 32V17H3V32C3 33.6569 4.34315 35 6 35H29.9996C29.3719 34.1643 29 33.1256 29 32ZM3 15H29V11V9C29 7.34315 27.6569 6 26 6H6C4.34315 6 3 7.34315 3 9V15ZM7 23C7 22.4477 7.44772 22 8 22H23C23.5523 22 24 22.4477 24 23C24 23.5523 23.5523 24 23 24H8C7.44772 24 7 23.5523 7 23ZM8 27C7.44772 27 7 27.4477 7 28C7 28.5523 7.44772 29 8 29H16C16.5523 29 17 28.5523 17 28C17 27.4477 16.5523 27 16 27H8Z" fill="#1A181E"/>
</svg>
