<svg width="40" height="40" viewBox="0 0 40 40" fill="none" xmlns="http://www.w3.org/2000/svg">
<path fill-rule="evenodd" clip-rule="evenodd" d="M20.5 3C16.9101 3 14 5.91015 14 9.5C14 13.0899 16.9101 16 20.5 16C24.0899 16 27 13.0899 27 9.5C27 5.91015 24.0899 3 20.5 3ZM12 9.5C12 4.80558 15.8056 1 20.5 1C25.1944 1 29 4.80558 29 9.5C29 14.1944 25.1944 18 20.5 18C15.8056 18 12 14.1944 12 9.5Z" fill="#1A181E"/>
<path d="M33 31.1818C33 37.9599 27.1797 38 20 38C12.8203 38 7 37.9599 7 31.1818C7 24.4038 12.8203 17 20 17C27.1797 17 33 24.4038 33 31.1818Z" fill="#FAB73B" fill-opacity="0.4"/>
<path fill-rule="evenodd" clip-rule="evenodd" d="M11.5613 22.2063C9.34699 24.746 8 28.064 8 31.1818C8 32.7345 8.33248 33.7936 8.84567 34.5401C9.35637 35.283 10.1142 35.8157 11.15 36.1931C13.2995 36.9764 16.3442 37 20 37C23.6558 37 26.7005 36.9764 28.85 36.1931C29.8858 35.8157 30.6436 35.283 31.1543 34.5401C31.6675 33.7936 32 32.7345 32 31.1818C32 28.064 30.653 24.746 28.4387 22.2063C26.2272 19.6699 23.234 18 20 18C16.766 18 13.7728 19.6699 11.5613 22.2063ZM10.0539 20.892C12.5475 18.032 16.0543 16 20 16C23.9457 16 27.4525 18.032 29.9461 20.892C32.4368 23.7486 34 27.5216 34 31.1818C34 33.0181 33.6049 34.5058 32.8025 35.6731C31.9975 36.8441 30.8516 37.5924 29.5348 38.0722C26.9888 39 23.5497 39 20.0395 39H19.9605C16.4503 39 13.0112 39 10.4652 38.0722C9.14845 37.5924 8.00251 36.8441 7.19754 35.6731C6.39506 34.5058 6 33.0181 6 31.1818C6 27.5216 7.56316 23.7486 10.0539 20.892Z" fill="#1A181E"/>
</svg>
