<svg width="41" height="40" viewBox="0 0 41 40" fill="none" xmlns="http://www.w3.org/2000/svg">
<path fill-rule="evenodd" clip-rule="evenodd" d="M12.33 9.17C12.33 4.65989 15.9899 1 20.5 1C25.0101 1 28.67 4.65989 28.67 9.17C28.67 9.68396 28.6107 10.1757 28.5155 10.6451C29.5301 11.3167 30.4695 12.1207 31.3081 13.063C33.8805 15.9558 35.1639 19.7274 34.9413 23.5162C37.6276 24.8485 39.5 27.6152 39.5 30.83C39.5 35.3401 35.8401 39 31.33 39C28.9543 39 26.8338 37.9676 25.3504 36.3566C23.7808 36.9125 22.1353 37.1902 20.4904 37.1902C18.8537 37.1902 17.2093 36.9124 15.6402 36.3567C14.1591 37.9668 12.0468 39 9.67 39C5.15989 39 1.5 35.3401 1.5 30.83C1.5 27.6332 3.35571 24.8763 6.03137 23.5377C5.78253 19.1767 7.52062 14.8825 10.8561 11.9083C11.3825 11.4361 11.9326 11.0312 12.4926 10.6691C12.3947 10.1954 12.33 9.69477 12.33 9.17ZM13.0607 12.5783C12.7354 12.8091 12.4229 13.0552 12.1238 13.3235L12.1216 13.3255C9.36437 15.7835 7.86378 19.2777 7.90889 22.8719C8.17144 22.8095 8.42988 22.762 8.69285 22.7302C8.99542 22.6935 9.29467 22.6788 9.60368 22.6826C9.6124 19.6304 10.9153 16.6885 13.2534 14.6035C13.4683 14.411 13.689 14.233 13.9124 14.0671C13.7279 13.8324 13.5647 13.5909 13.4179 13.3301C13.2829 13.0903 13.1663 12.8419 13.0607 12.5783ZM15.2571 15.4401C14.9991 15.6199 14.7526 15.8113 14.5204 16.0194L14.5187 16.0209C12.5282 17.7956 11.4496 20.3146 11.5057 22.9064C15.1155 23.7463 17.8304 26.9539 17.8304 30.83C17.8304 30.9836 17.8237 31.133 17.8125 31.2777C19.5629 31.8177 21.4451 31.8162 23.1802 31.2718C23.168 31.1282 23.16 30.9796 23.16 30.83C23.16 26.9664 25.8544 23.7662 29.4395 22.9261C29.4977 20.6815 28.7045 18.4631 27.1753 16.7439C26.7273 16.2449 26.2447 15.8095 25.7274 15.4358C24.3126 16.6219 22.4866 17.3496 20.4904 17.3496C18.5017 17.3496 16.674 16.6284 15.2571 15.4401ZM27.0381 14.0422C27.5936 14.4635 28.1111 14.942 28.5907 15.4763L28.5933 15.4793C30.3859 17.4936 31.3452 20.0752 31.3425 22.7069C31.6556 22.7015 31.9555 22.7131 32.2583 22.7457C32.5282 22.7746 32.7929 22.8195 33.0643 22.8796C33.116 19.769 32.0047 16.7056 29.8885 14.3258C29.2932 13.6569 28.6385 13.0677 27.9354 12.5551C27.84 12.775 27.7335 12.9874 27.6118 13.1983C27.4452 13.4866 27.2555 13.7623 27.0381 14.0422ZM33.6186 25.0055C32.959 24.7927 32.4992 24.6825 32.0554 24.6348C31.6095 24.5869 31.1383 24.5978 30.4514 24.6689C27.4132 25.0847 25.06 27.6742 25.06 30.83C25.06 31.074 25.0925 31.31 25.1353 31.6197C25.1418 31.6673 25.1486 31.7167 25.1556 31.7681C25.2612 32.4152 25.3742 32.8559 25.5459 33.2608C25.7184 33.6676 25.9687 34.0821 26.3963 34.6537C27.5482 36.1383 29.3267 37.1 31.33 37.1C34.7908 37.1 37.6 34.2908 37.6 30.83C37.6 28.1879 35.944 25.9257 33.6186 25.0055ZM24.1701 34.745C24.0274 34.4995 23.9038 34.2553 23.7966 34.0024C23.6793 33.7256 23.5854 33.4476 23.5068 33.1575C21.5491 33.7215 19.4568 33.7216 17.4915 33.1641C17.3292 33.7414 17.1056 34.2326 16.8063 34.7408C18.0074 35.107 19.2516 35.2902 20.4904 35.2902C21.732 35.2902 22.973 35.1084 24.1701 34.745ZM14.5855 34.6646C15.3811 33.5318 15.6765 32.9583 15.8329 31.7916L15.8346 31.7786L15.8367 31.7657C15.8924 31.4222 15.9304 31.1269 15.9304 30.83C15.9304 27.6652 13.5575 25.062 10.484 24.6487C9.83587 24.5711 9.36738 24.5624 8.92123 24.6164C8.47436 24.6705 8.00798 24.7925 7.36628 25.0194C5.04318 25.9457 3.4 28.2021 3.4 30.83C3.4 34.2908 6.20923 37.1 9.67 37.1C11.667 37.1 13.4326 36.1442 14.5855 34.6646ZM24.9402 13.5811C25.4344 13.0331 25.7416 12.6374 25.9665 12.2479C26.1889 11.863 26.3519 11.4475 26.5131 10.8414L26.5166 10.8285C26.6738 10.2695 26.77 9.72346 26.77 9.17C26.77 5.70923 23.9608 2.9 20.5 2.9C17.0392 2.9 14.23 5.70923 14.23 9.17C14.23 9.72659 14.3332 10.2803 14.4936 10.8596C14.6921 11.5682 14.8611 12.0205 15.0737 12.3982C15.282 12.7684 15.5572 13.1109 16.0214 13.5619L16.0288 13.5691L16.036 13.5764C17.1757 14.7328 18.7549 15.4496 20.4904 15.4496C22.2258 15.4496 23.7999 14.731 24.9402 13.5811Z" fill="#1A181E"/>
<path d="M25.9665 12.2479C25.7416 12.6374 25.4344 13.0331 24.9402 13.5811C23.7999 14.731 22.2258 15.4496 20.4904 15.4496C18.7549 15.4496 17.1757 14.7328 16.036 13.5764L16.0288 13.5691L16.0214 13.5619C15.5572 13.1109 15.282 12.7684 15.0737 12.3982C14.8611 12.0205 14.6921 11.5682 14.4936 10.8596C14.3332 10.2803 14.23 9.72659 14.23 9.17C14.23 5.70923 17.0392 2.9 20.5 2.9C23.9608 2.9 26.77 5.70923 26.77 9.17C26.77 9.72346 26.6738 10.2695 26.5166 10.8285L26.5131 10.8414C26.3519 11.4475 26.1889 11.863 25.9665 12.2479Z" fill="#17B31B" fill-opacity="0.4"/>
<path d="M15.8329 31.7916C15.6765 32.9583 15.3811 33.5318 14.5855 34.6646C13.4326 36.1442 11.667 37.1 9.67 37.1C6.20923 37.1 3.4 34.2908 3.4 30.83C3.4 28.2021 5.04318 25.9457 7.36628 25.0194C8.00798 24.7925 8.47436 24.6705 8.92123 24.6164C9.36738 24.5624 9.83587 24.5711 10.484 24.6487C13.5575 25.062 15.9304 27.6652 15.9304 30.83C15.9304 31.1269 15.8924 31.4222 15.8367 31.7657L15.8346 31.7786L15.8329 31.7916Z" fill="#17B31B" fill-opacity="0.4"/>
<path d="M32.0554 24.6348C32.4992 24.6825 32.959 24.7927 33.6186 25.0055C35.944 25.9257 37.6 28.1879 37.6 30.83C37.6 34.2908 34.7908 37.1 31.33 37.1C29.3267 37.1 27.5482 36.1383 26.3963 34.6537C25.9687 34.0821 25.7184 33.6676 25.5459 33.2608C25.3742 32.8559 25.2612 32.4152 25.1556 31.7681L25.1353 31.6197C25.0925 31.31 25.06 31.074 25.06 30.83C25.06 27.6742 27.4132 25.0847 30.4514 24.6689C31.1383 24.5978 31.6095 24.5869 32.0554 24.6348Z" fill="#17B31B" fill-opacity="0.4"/>
</svg>
