<svg width="32" height="32" viewBox="0 0 32 32" fill="none" xmlns="http://www.w3.org/2000/svg">
<path d="M3.92993 29.89C3.78993 29.89 3.63993 29.86 3.50993 29.8C3.15993 29.64 2.92993 29.28 2.92993 28.89V5.34999C2.92993 3.55999 4.35993 2.10999 6.12993 2.10999H25.8899C27.6499 2.10999 29.0899 3.55999 29.0899 5.34999V21.04C29.0899 22.83 27.6599 24.28 25.8899 24.28H10.8899L4.57993 29.65C4.39993 29.81 4.15993 29.89 3.92993 29.89ZM6.11993 4.10999C5.45993 4.10999 4.91993 4.66999 4.91993 5.34999V26.73L9.85993 22.53C10.0399 22.38 10.2699 22.29 10.5099 22.29H25.8799C26.5399 22.29 27.0799 21.73 27.0799 21.05V5.34999C27.0799 4.65999 26.5399 4.10999 25.8799 4.10999H6.11993ZM15.9999 15.32H10.5099C9.95993 15.32 9.50993 14.87 9.50993 14.32C9.50993 13.77 9.95993 13.32 10.5099 13.32H15.9999C16.5499 13.32 16.9999 13.77 16.9999 14.32C16.9999 14.87 16.5499 15.32 15.9999 15.32ZM21.4899 10.83H10.5099C9.95993 10.83 9.50993 10.38 9.50993 9.82999C9.50993 9.27999 9.95993 8.82999 10.5099 8.82999H21.4899C22.0399 8.82999 22.4899 9.27999 22.4899 9.82999C22.4899 10.38 22.0399 10.83 21.4899 10.83Z" fill="#242424"/>
</svg>
