<?xml version="1.0" encoding="UTF-8"?>
<svg id="Layer_1" xmlns="http://www.w3.org/2000/svg" version="1.1" viewBox="0 0 32 32">
  <!-- Generator: Adobe Illustrator 29.2.1, SVG Export Plug-In . SVG Version: 2.1.0 Build 116)  -->
  <defs>
    <style>
      .st0 {
        fill: #242424;
      }
    </style>
  </defs>
  <path class="st0" d="M16,27.6s-11.5-11.5-11.5-11.5c-3.2-3.2-3.2-8.4,0-11.7l2.1-2.1c.4-.4,1-.4,1.4,0l6,6c.4.4.4,1,0,1.4l-.7.7c-.3.3-.4.6-.4,1s.2.7.4,1l5.5,5.5c.4.4.4,1,0,1.4s-1,.4-1.4,0l-5.5-5.5c-.6-.6-1-1.5-1-2.4s.3-1.8,1-2.4l-4.6-4.6-1.4,1.4c-2.4,2.4-2.4,6.4,0,8.8l11.5,11.5c2.4,2.4,6.4,2.4,8.8,0l1.4-1.4-5.3-5.3c-.4-.4-.4-1,0-1.4s1-.4,1.4,0l6,6c.4.4.4,1,0,1.4,0,0-2.1,2.1-2.1,2.1-2.2,2.1-5.6,2.8-8.5,2.1-1.2-.3-2.2-1.1-3.1-2Z"/>
</svg>