<svg width="60" height="60" viewBox="0 0 60 60" fill="none" xmlns="http://www.w3.org/2000/svg">
<path fill-rule="evenodd" clip-rule="evenodd" d="M0 10.8155C0 7.05142 3.04747 4 6.80672 4H53.1933C56.9525 4 60 7.05142 60 10.8155V49.1845C60 52.9486 56.9525 56 53.1933 56H6.80672C3.04748 56 0 52.9486 0 49.1845V10.8155ZM6.80672 7.53398C4.99672 7.53398 3.52941 9.00318 3.52941 10.8155V49.1845C3.52941 50.9968 4.99671 52.466 6.80672 52.466H53.1933C55.0033 52.466 56.4706 50.9968 56.4706 49.1845V10.8155C56.4706 9.00318 55.0033 7.53398 53.1933 7.53398H6.80672Z" fill="#146EB4"/>
<path fill-rule="evenodd" clip-rule="evenodd" d="M18.6654 19.6631C19.171 19.1568 19.9318 19.0061 20.5919 19.2815L40.7599 27.6947C41.4376 27.9774 41.8697 28.6506 41.845 29.3853C41.8203 30.1199 41.3439 30.7625 40.6488 30.9989L32.6898 33.7057L29.9865 41.675C29.7504 42.371 29.1087 42.848 28.375 42.8727C27.6413 42.8975 26.9689 42.4648 26.6866 41.7863L18.2842 21.5921C18.0092 20.9312 18.1597 20.1694 18.6654 19.6631ZM23.1902 24.1938L28.1474 36.108L29.6276 31.7444C29.804 31.2245 30.2118 30.8162 30.731 30.6396L35.089 29.1575L23.1902 24.1938Z" fill="#146EB4"/>
</svg>
