<svg width="60" height="60" viewBox="0 0 60 60" fill="none" xmlns="http://www.w3.org/2000/svg">
<path fill-rule="evenodd" clip-rule="evenodd" d="M7.93103 17C8.99752 17 9.86207 17.8706 9.86207 18.9444V53.1111H50.1379V18.9444C50.1379 17.8706 51.0025 17 52.069 17C53.1354 17 54 17.8706 54 18.9444V55.0556C54 56.1294 53.1354 57 52.069 57H7.93103C6.86455 57 6 56.1294 6 55.0556V18.9444C6 17.8706 6.86455 17 7.93103 17Z" fill="#146EB4"/>
<path fill-rule="evenodd" clip-rule="evenodd" d="M0 4.96875C0 3.88144 0.878693 3 1.96262 3H58.0374C59.1213 3 60 3.88144 60 4.96875V19.0312C60 20.1186 59.1213 21 58.0374 21H1.96262C0.878693 21 0 20.1186 0 19.0312V4.96875ZM3.92523 6.9375V17.0625H56.0748V6.9375H3.92523Z" fill="#146EB4"/>
<path fill-rule="evenodd" clip-rule="evenodd" d="M22 30C22 28.8954 22.8706 28 23.9444 28H35.0556C36.1294 28 37 28.8954 37 30C37 31.1046 36.1294 32 35.0556 32H23.9444C22.8706 32 22 31.1046 22 30Z" fill="#146EB4"/>
</svg>
