<svg width="60" height="61" viewBox="0 0 60 61" fill="none" xmlns="http://www.w3.org/2000/svg">
<path fill-rule="evenodd" clip-rule="evenodd" d="M30 4C25.4882 4 21.1631 5.78368 17.9757 8.95555C14.7887 12.1271 13 16.4266 13 20.9076C13 27.523 17.3441 34.8247 22.0615 40.7188C24.3764 43.6111 26.6964 46.0615 28.4394 47.7895C29.0367 48.3818 29.5649 48.8878 30 49.2961C30.4351 48.8878 30.9633 48.3818 31.5606 47.7895C33.3036 46.0615 35.6236 43.6111 37.9385 40.7188C42.6559 34.8247 47 27.523 47 20.9076C47 16.4266 45.2113 12.1271 42.0243 8.95555C38.8369 5.78368 34.5118 4 30 4ZM30 52L31.3062 53.5145C30.5557 54.1618 29.4443 54.1618 28.6938 53.5145L30 52ZM15.1542 6.12024C19.0932 2.2004 24.4336 0 30 0C35.5664 0 40.9068 2.2004 44.8458 6.12024C48.7851 10.0404 51 15.3594 51 20.9076C51 28.998 45.8441 37.2425 41.0615 43.2182C38.6264 46.2608 36.1964 48.8261 34.3769 50.6301C33.4659 51.5333 32.7049 52.2486 32.1687 52.7407C31.9005 52.9868 31.6884 53.1773 31.5416 53.3077C31.4682 53.3729 31.4111 53.4231 31.3715 53.4577L31.3253 53.498L31.3123 53.5093L31.3071 53.5138C31.3066 53.5142 31.3062 53.5145 30 52C28.6938 53.5145 28.6934 53.5142 28.6929 53.5138L28.6877 53.5093L28.6747 53.498L28.6285 53.4577C28.5889 53.4231 28.5318 53.3729 28.4584 53.3077C28.3116 53.1773 28.0995 52.9868 27.8313 52.7407C27.2951 52.2486 26.5341 51.5333 25.6231 50.6301C23.8036 48.8261 21.3736 46.2608 18.9385 43.2182C14.1559 37.2425 9 28.998 9 20.9076C9 15.3594 11.2149 10.0404 15.1542 6.12024Z" fill="#146EB4"/>
<path d="M30 28C33.866 28 37 24.6421 37 20.5C37 16.3579 33.866 13 30 13C26.134 13 23 16.3579 23 20.5C23 24.6421 26.134 28 30 28Z" fill="white"/>
<path fill-rule="evenodd" clip-rule="evenodd" d="M30 15C27.3663 15 25 17.3302 25 20.5C25 23.6698 27.3663 26 30 26C32.6337 26 35 23.6698 35 20.5C35 17.3302 32.6337 15 30 15ZM21 20.5C21 15.3855 24.9017 11 30 11C35.0983 11 39 15.3855 39 20.5C39 25.6145 35.0983 30 30 30C24.9017 30 21 25.6145 21 20.5Z" fill="#146EB4"/>
<path fill-rule="evenodd" clip-rule="evenodd" d="M38.3859 49.3441C38.5504 48.2519 39.5691 47.4997 40.6614 47.6642C43.3694 48.0719 45.5322 48.6697 47.075 49.4825C48.5541 50.2617 50 51.5518 50 53.4996C50 55.2646 48.6175 56.3734 47.6031 56.9729C46.4548 57.6517 44.9264 58.1935 43.213 58.6219C39.7554 59.4863 35.0848 59.9996 30 59.9996C24.9152 59.9996 20.2446 59.4863 16.787 58.6219C15.0736 58.1935 13.5452 57.6517 12.3969 56.9729C11.3825 56.3734 10 55.2646 10 53.4996C10 52.4986 10.4652 51.6968 10.9909 51.1273C11.5066 50.5685 12.1697 50.1285 12.8522 49.7743C14.2215 49.0635 16.0598 48.4992 18.1411 48.0695C19.2228 47.8462 20.2808 48.542 20.5041 49.6238C20.7275 50.7055 20.0316 51.7635 18.9499 51.9869C17.0335 52.3825 15.5991 52.8552 14.695 53.3245C14.5754 53.3866 14.4717 53.4452 14.3824 53.4996C14.3985 53.5094 14.4151 53.5194 14.4322 53.5295C15.1056 53.9275 16.2132 54.3553 17.7571 54.7413C20.8143 55.5056 25.1437 55.9996 30 55.9996C34.8563 55.9996 39.1857 55.5056 42.2429 54.7413C43.7868 54.3553 44.8944 53.9275 45.5678 53.5295C45.6562 53.4772 45.7305 53.4298 45.7926 53.3874C45.6699 53.2898 45.4855 53.1662 45.2107 53.0215C44.2427 52.5115 42.5873 51.9992 40.0659 51.6196C38.9736 51.4551 38.2215 50.4364 38.3859 49.3441ZM46.0246 53.636C46.0235 53.6361 46.019 53.6285 46.0141 53.6127C46.0232 53.6278 46.0256 53.6358 46.0246 53.636ZM46.0759 53.1541C46.0822 53.1437 46.0864 53.1386 46.087 53.1387C46.0875 53.1388 46.0843 53.144 46.0759 53.1541ZM13.913 53.1387C13.9136 53.1386 13.9178 53.1437 13.9241 53.1541C13.9157 53.144 13.9125 53.1388 13.913 53.1387Z" fill="#146EB4"/>
</svg>
