<svg width="88" height="89" viewBox="0 0 88 89" fill="none" xmlns="http://www.w3.org/2000/svg">
<g filter="url(#filter0_di_5238_181264)">
<rect x="4" y="2.9978" width="80" height="80" rx="22" fill="#31353C"/>
<g clip-path="url(#clip0_5238_181264)">
<path d="M57.5703 42.7217V50.2217" stroke="white" stroke-width="2" stroke-linecap="round" stroke-linejoin="round"/>
<path d="M53.8203 46.4717H61.3203" stroke="white" stroke-width="2" stroke-linecap="round" stroke-linejoin="round"/>
<path d="M36.3203 28.9717V36.4717" stroke="white" stroke-width="2" stroke-linecap="round" stroke-linejoin="round"/>
<path d="M32.5703 32.7217H40.0703" stroke="white" stroke-width="2" stroke-linecap="round" stroke-linejoin="round"/>
<path d="M50.0703 51.4717V56.4717" stroke="white" stroke-width="2" stroke-linecap="round" stroke-linejoin="round"/>
<path d="M47.5703 53.9717H52.5703" stroke="white" stroke-width="2" stroke-linecap="round" stroke-linejoin="round"/>
<path d="M46.3203 35.2217L51.3203 40.2217" stroke="white" stroke-width="2" stroke-linecap="round" stroke-linejoin="round"/>
<path d="M52.2064 29.3375L30.4386 51.1053C29.9504 51.5935 29.9504 52.3849 30.4386 52.8731L33.6703 56.1048C34.1584 56.5929 34.9499 56.5929 35.438 56.1048L57.2059 34.3369C57.694 33.8488 57.694 33.0573 57.2059 32.5692L53.9742 29.3375C53.486 28.8493 52.6946 28.8493 52.2064 29.3375Z" stroke="white" stroke-width="2" stroke-linecap="round" stroke-linejoin="round"/>
</g>
</g>
<defs>
<filter id="filter0_di_5238_181264" x="0" y="0.997803" width="88" height="88" filterUnits="userSpaceOnUse" color-interpolation-filters="sRGB">
<feFlood flood-opacity="0" result="BackgroundImageFix"/>
<feColorMatrix in="SourceAlpha" type="matrix" values="0 0 0 0 0 0 0 0 0 0 0 0 0 0 0 0 0 0 127 0" result="hardAlpha"/>
<feOffset dy="2"/>
<feGaussianBlur stdDeviation="2"/>
<feColorMatrix type="matrix" values="0 0 0 0 0.04 0 0 0 0 0.0466667 0 0 0 0 0.06 0 0 0 0.15 0"/>
<feBlend mode="normal" in2="BackgroundImageFix" result="effect1_dropShadow_5238_181264"/>
<feBlend mode="normal" in="SourceGraphic" in2="effect1_dropShadow_5238_181264" result="shape"/>
<feColorMatrix in="SourceAlpha" type="matrix" values="0 0 0 0 0 0 0 0 0 0 0 0 0 0 0 0 0 0 127 0" result="hardAlpha"/>
<feOffset dx="4" dy="4"/>
<feGaussianBlur stdDeviation="5"/>
<feComposite in2="hardAlpha" operator="arithmetic" k2="-1" k3="1"/>
<feColorMatrix type="matrix" values="0 0 0 0 1 0 0 0 0 1 0 0 0 0 1 0 0 0 0.06 0"/>
<feBlend mode="normal" in2="shape" result="effect2_innerShadow_5238_181264"/>
</filter>
<clipPath id="clip0_5238_181264">
<rect width="40" height="40" fill="white" transform="translate(23.8203 22.7217)"/>
</clipPath>
</defs>
</svg>
