<svg width="88" height="89" viewBox="0 0 88 89" fill="none" xmlns="http://www.w3.org/2000/svg">
<g filter="url(#filter0_di_5238_181252)">
<rect x="4" y="2.9978" width="80" height="80" rx="22" fill="#31353C"/>
<g clip-path="url(#clip0_5238_181252)">
<path d="M44 35.5V43L50.25 46.75" stroke="white" stroke-width="2" stroke-linecap="round" stroke-linejoin="round"/>
<path d="M61.2718 36.1641L55.3499 34.1657L53.3515 40.0876" stroke="white" stroke-width="2" stroke-linecap="round" stroke-linejoin="round"/>
<mask id="path-4-inside-1_5238_181252" fill="white">
<path d="M47.166 29.4729C47.2748 28.9539 46.9425 28.4417 46.4176 28.3668C43.3618 27.9303 40.2367 28.4597 37.4852 29.894C34.4492 31.4766 32.0558 34.0629 30.7129 37.2123C29.37 40.3617 29.1606 43.8793 30.1204 47.1657C31.0803 50.4522 33.15 53.3042 35.9769 55.2357C38.8038 57.1672 42.2129 58.0588 45.6235 57.7586C49.0341 57.4583 52.235 55.9848 54.6809 53.589C57.1269 51.1933 58.6664 48.0235 59.0373 44.6199C59.4082 41.2163 58.5874 37.7894 56.7149 34.9231L55.1074 35.9733C56.7369 38.4677 57.4512 41.45 57.1284 44.4119C56.8057 47.3739 55.4659 50.1324 53.3373 52.2173C51.2088 54.3021 48.4232 55.5845 45.4551 55.8458C42.4871 56.1071 39.5203 55.3312 37.0602 53.6503C34.6001 51.9694 32.7989 49.4874 31.9636 46.6274C31.1283 43.7674 31.3105 40.7062 32.4792 37.9654C33.6478 35.2247 35.7307 32.9739 38.3728 31.5967C40.7302 30.3679 43.4028 29.9023 46.0227 30.2506C46.5483 30.3205 47.0571 29.9918 47.166 29.4729Z"/>
</mask>
<path d="M56.7149 34.9231L58.3893 33.8293L57.2954 32.1549L55.621 33.2487L56.7149 34.9231ZM55.1074 35.9733L54.0135 34.2989L52.3391 35.3928L53.433 37.0671L55.1074 35.9733ZM46.0227 30.2506L45.7591 32.2332L46.0227 30.2506ZM46.4176 28.3668L46.1349 30.3467L46.4176 28.3668ZM46.7004 26.3868C43.2315 25.8914 39.6841 26.4924 36.5608 28.1205L38.4097 31.6675C40.7893 30.4271 43.492 29.9692 46.1349 30.3467L46.7004 26.3868ZM36.5608 28.1205C33.1144 29.9169 30.3976 32.8528 28.8731 36.4278L32.5526 37.9968C33.714 35.273 35.784 33.0362 38.4097 31.6675L36.5608 28.1205ZM28.8731 36.4278C27.3487 40.0028 27.1111 43.9958 28.2006 47.7264L32.0402 46.605C31.2101 43.7627 31.3912 40.7205 32.5526 37.9968L28.8731 36.4278ZM28.2006 47.7264C29.2902 51.457 31.6396 54.6944 34.8486 56.887L37.1052 53.5844C34.6604 51.9139 32.8704 49.4473 32.0402 46.605L28.2006 47.7264ZM34.8486 56.887C38.0575 59.0796 41.9274 60.0917 45.7989 59.7509L45.4481 55.7663C42.4985 56.0259 39.55 55.2548 37.1052 53.5844L34.8486 56.887ZM45.7989 59.7509C49.6704 59.41 53.3039 57.7373 56.0804 55.0178L53.2815 52.1602C51.1661 54.2322 48.3978 55.5066 45.4481 55.7663L45.7989 59.7509ZM56.0804 55.0178C58.8569 52.2983 60.6045 48.7002 61.0255 44.8366L57.0491 44.4033C56.7283 47.3469 55.3968 50.0883 53.2815 52.1602L56.0804 55.0178ZM61.0255 44.8366C61.4465 40.973 60.5149 37.0829 58.3893 33.8293L55.0405 36.017C56.66 38.4959 57.3698 41.4597 57.0491 44.4033L61.0255 44.8366ZM55.621 33.2487L54.0135 34.2989L56.2012 37.6477L57.8087 36.5975L55.621 33.2487ZM53.433 37.0671C54.8095 39.1742 55.4128 41.6933 55.1402 44.1953L59.1167 44.6286C59.4895 41.2066 58.6644 37.7612 56.7817 34.8794L53.433 37.0671ZM55.1402 44.1953C54.8676 46.6973 53.7358 49.0273 51.9378 50.7885L54.7368 53.646C57.1959 51.2374 58.7438 48.0506 59.1167 44.6286L55.1402 44.1953ZM51.9378 50.7885C50.1398 52.5496 47.7868 53.6328 45.2797 53.8535L45.6305 57.8381C49.0595 57.5362 52.2777 56.0547 54.7368 53.646L51.9378 50.7885ZM45.2797 53.8535C42.7726 54.0742 40.2665 53.4188 38.1885 51.9989L35.9319 55.3016C38.774 57.2436 42.2015 58.14 45.6305 57.8381L45.2797 53.8535ZM38.1885 51.9989C36.1104 50.5791 34.589 48.4826 33.8834 46.0667L30.0438 47.1881C31.0089 50.4923 33.0897 53.3596 35.9319 55.3016L38.1885 51.9989ZM33.8834 46.0667C33.1778 43.6508 33.3317 41.065 34.3189 38.7499L30.6394 37.181C29.2893 40.3474 29.0788 43.8839 30.0438 47.1881L33.8834 46.0667ZM34.3189 38.7499C35.3061 36.4348 37.0655 34.5336 39.2973 33.3702L37.4483 29.8232C34.3959 31.4143 31.9896 34.0146 30.6394 37.181L34.3189 38.7499ZM39.2973 33.3702C41.2886 32.3322 43.5461 31.9389 45.7591 32.2332L46.2863 28.2681C43.2595 27.8656 40.1719 28.4035 37.4483 29.8232L39.2973 33.3702ZM45.7591 32.2332C47.228 32.4285 48.7807 31.5174 49.1234 29.8833L45.2085 29.0624C45.3336 28.4662 45.8686 28.2125 46.2863 28.2681L45.7591 32.2332ZM46.1349 30.3467C45.4304 30.2461 45.0983 29.5881 45.2085 29.0624L49.1234 29.8833C49.4513 28.3197 48.4547 26.6374 46.7004 26.3868L46.1349 30.3467Z" fill="white" mask="url(#path-4-inside-1_5238_181252)"/>
</g>
</g>
<defs>
<filter id="filter0_di_5238_181252" x="0" y="0.997803" width="88" height="88" filterUnits="userSpaceOnUse" color-interpolation-filters="sRGB">
<feFlood flood-opacity="0" result="BackgroundImageFix"/>
<feColorMatrix in="SourceAlpha" type="matrix" values="0 0 0 0 0 0 0 0 0 0 0 0 0 0 0 0 0 0 127 0" result="hardAlpha"/>
<feOffset dy="2"/>
<feGaussianBlur stdDeviation="2"/>
<feColorMatrix type="matrix" values="0 0 0 0 0.04 0 0 0 0 0.0466667 0 0 0 0 0.06 0 0 0 0.15 0"/>
<feBlend mode="normal" in2="BackgroundImageFix" result="effect1_dropShadow_5238_181252"/>
<feBlend mode="normal" in="SourceGraphic" in2="effect1_dropShadow_5238_181252" result="shape"/>
<feColorMatrix in="SourceAlpha" type="matrix" values="0 0 0 0 0 0 0 0 0 0 0 0 0 0 0 0 0 0 127 0" result="hardAlpha"/>
<feOffset dx="4" dy="4"/>
<feGaussianBlur stdDeviation="5"/>
<feComposite in2="hardAlpha" operator="arithmetic" k2="-1" k3="1"/>
<feColorMatrix type="matrix" values="0 0 0 0 1 0 0 0 0 1 0 0 0 0 1 0 0 0 0.06 0"/>
<feBlend mode="normal" in2="shape" result="effect2_innerShadow_5238_181252"/>
</filter>
<clipPath id="clip0_5238_181252">
<rect width="40" height="40" fill="white" transform="translate(24 23)"/>
</clipPath>
</defs>
</svg>
