<svg width="40" height="40" viewBox="0 0 40 40" fill="none" xmlns="http://www.w3.org/2000/svg">
<path d="M35 17.5C35 24.9558 27.6127 31 18.5 31C14.7405 31 11.2746 29.9713 8.5 28.239C8.05452 27.9609 5.31863 29.0316 3.88094 29.6269C3.60936 29.7393 3.34055 29.43 3.48656 29.1748C4.19354 27.9395 5.38111 25.7067 5 25.2639C3.10991 23.0679 2 20.39 2 17.5C2 10.0442 9.3873 4 18.5 4C27.6127 4 35 10.0442 35 17.5Z" fill="#146EB4" fill-opacity="0.4"/>
<path fill-rule="evenodd" clip-rule="evenodd" d="M3 17.5C3 10.7747 9.7426 5 18.5 5C27.2574 5 34 10.7747 34 17.5C34 24.2253 27.2574 30 18.5 30C14.9211 30 11.6398 29.0204 9.02958 27.3908C8.7057 27.1886 8.35327 27.1901 8.20082 27.1949C7.99942 27.2013 7.78762 27.2347 7.59021 27.2755C7.19087 27.358 6.71844 27.4989 6.24553 27.657C5.91921 27.7661 5.57929 27.8879 5.24424 28.013C5.35824 27.7821 5.46764 27.5501 5.56675 27.3246C5.74404 26.9214 5.90727 26.4972 5.99688 26.1182C6.04124 25.9306 6.07866 25.7093 6.07308 25.4837C6.06792 25.2752 6.02272 24.9192 5.75793 24.6116C4.00531 22.5753 3 20.1234 3 17.5ZM18.5 3C9.032 3 1 9.3136 1 17.5C1 20.5528 2.13594 23.3692 4.04469 25.6821C3.99422 25.8838 3.88996 26.1692 3.73587 26.5197C3.41993 27.2384 2.96736 28.0688 2.61864 28.6781C2.00968 29.7421 3.09118 31.0362 4.26349 30.5508C4.97619 30.2557 5.9939 29.8499 6.87957 29.5539C7.32603 29.4046 7.71095 29.2928 7.99481 29.2342C8.06256 29.2202 8.11751 29.2107 8.1608 29.2045C10.582 30.674 13.4703 31.6356 16.597 31.9154C18.903 34.426 22.5045 36.0014 26.5 36.0014C29.1984 36.0014 31.7101 35.2839 33.7661 34.0501C33.9496 34.089 34.2078 34.1647 34.5174 34.2696C35.1323 34.478 35.8403 34.7637 36.3311 34.9693C37.4085 35.4206 38.4099 34.2371 37.8505 33.2531C37.61 32.83 37.2954 32.2493 37.0764 31.7495C37.0015 31.5786 36.946 31.4356 36.9089 31.3233C38.2193 29.6712 39 27.6701 39 25.5014C39 22.842 37.8282 20.4418 35.9493 18.6216C35.9829 18.252 36 17.878 36 17.5C36 9.3136 27.968 3 18.5 3ZM35.4675 21.0842C33.6242 27.1408 27.2146 31.5431 19.6915 31.9665C21.5117 33.2254 23.8817 34.0014 26.5 34.0014C28.9377 34.0014 31.1674 33.3276 32.9365 32.2125C33.2469 32.0168 33.5766 32.0237 33.6932 32.0277C33.8599 32.0335 34.0284 32.0615 34.1758 32.0925C34.4752 32.1556 34.822 32.2611 35.1594 32.3754L35.1708 32.3793C35.07 32.1358 34.9781 31.8809 34.9215 31.643C34.8868 31.4975 34.8542 31.3138 34.8581 31.1196C34.8616 30.9442 34.8973 30.6103 35.1481 30.3161C36.3289 28.9309 37 27.2713 37 25.5014C37 23.9004 36.4498 22.3854 35.4675 21.0842ZM8.28812 29.1944C8.28765 29.1948 8.27962 29.1951 8.26542 29.1939C8.28149 29.1934 8.28859 29.194 8.28812 29.1944Z" fill="#1A181E"/>
<path fill-rule="evenodd" clip-rule="evenodd" d="M11 15C11 14.4477 11.4477 14 12 14H25C25.5523 14 26 14.4477 26 15C26 15.5523 25.5523 16 25 16H12C11.4477 16 11 15.5523 11 15Z" fill="#1A181E"/>
<path fill-rule="evenodd" clip-rule="evenodd" d="M11 20C11 19.4477 11.4477 19 12 19H24C24.5523 19 25 19.4477 25 20C25 20.5523 24.5523 21 24 21H12C11.4477 21 11 20.5523 11 20Z" fill="#1A181E"/>
</svg>
