<svg width="40" height="40" viewBox="0 0 40 40" fill="none" xmlns="http://www.w3.org/2000/svg">
<path fill-rule="evenodd" clip-rule="evenodd" d="M1 20C1 9.50659 9.50659 1 20 1C30.4934 1 39 9.50659 39 20C39 30.4934 30.4934 39 20 39H1V20Z" fill="#F8C7A5"/>
<path fill-rule="evenodd" clip-rule="evenodd" d="M1 20C1 9.50659 9.50659 1 20 1C30.4934 1 39 9.50659 39 20C39 30.4934 30.4934 39 20 39H1V20ZM20 3C10.6112 3 3 10.6112 3 20V37H20C29.3888 37 37 29.3888 37 20C37 10.6112 29.3888 3 20 3Z" fill="#1A181E"/>
<path d="M20.4815 13.1289V15.3635H17.7712V13.1289H20.4815ZM21.7379 25.5584V27.1289H16.5956V25.5584L17.8609 25.2892V19.2674L16.4609 18.9981V17.4187H20.4815V25.2892L21.7379 25.5584Z" fill="#1A181E"/>
</svg>
