<svg width="40" height="40" viewBox="0 0 40 40" fill="none" xmlns="http://www.w3.org/2000/svg">
<g clip-path="url(#clip0_2967_63821)">
<path d="M14 5H24H33.5L34 17.5H6V12.5L7.5 6.5L10.5 5H14Z" fill="#A2E1A4"/>
<path d="M6.25 17.5H33.75" stroke="#1A181E" stroke-width="2" stroke-linecap="round" stroke-linejoin="round"/>
<path d="M16.0625 23.75H8.75C8.08696 23.75 7.45107 23.4866 6.98223 23.0178C6.51339 22.5489 6.25 21.913 6.25 21.25V10C6.25 8.67392 6.77678 7.40215 7.71447 6.46447C8.65215 5.52678 9.92392 5 11.25 5H33.75V21.25C33.75 21.913 33.4866 22.5489 33.0178 23.0178C32.5489 23.4866 31.913 23.75 31.25 23.75H23.9375C23.7591 23.7505 23.583 23.7892 23.4208 23.8635C23.2586 23.9378 23.1142 24.0459 22.9973 24.1805C22.8804 24.3152 22.7937 24.4734 22.7429 24.6444C22.6922 24.8153 22.6786 24.9952 22.7031 25.1719L23.75 32.5C23.75 33.4946 23.3549 34.4484 22.6517 35.1517C21.9484 35.8549 20.9946 36.25 20 36.25C19.0054 36.25 18.0516 35.8549 17.3483 35.1517C16.6451 34.4484 16.25 33.4946 16.25 32.5L17.2969 25.1719C17.3214 24.9952 17.3078 24.8153 17.2571 24.6444C17.2063 24.4734 17.1196 24.3152 17.0027 24.1805C16.8858 24.0459 16.7414 23.9378 16.5792 23.8635C16.417 23.7892 16.2409 23.7505 16.0625 23.75V23.75Z" stroke="#1A181E" stroke-width="2" stroke-linecap="round" stroke-linejoin="round"/>
<path d="M28.75 5V12.5" stroke="#1A181E" stroke-width="2" stroke-linecap="round" stroke-linejoin="round"/>
</g>
<defs>
<clipPath id="clip0_2967_63821">
<rect width="40" height="40" fill="white"/>
</clipPath>
</defs>
</svg>
