<svg width="60" height="52" viewBox="0 0 60 52" fill="none" xmlns="http://www.w3.org/2000/svg">
<rect x="2" y="2" width="56" height="48" rx="5" fill="#249FE6" fill-opacity="0.2" stroke="#1A181E" stroke-width="3.5" stroke-miterlimit="10"/>
<path fill-rule="evenodd" clip-rule="evenodd" d="M30.1498 23.5082C30.923 23.5082 31.5498 24.1345 31.5498 24.9072L31.5498 39.297C31.5498 40.0697 30.923 40.696 30.1498 40.696C29.3766 40.696 28.7498 40.0697 28.7498 39.297L28.7498 24.9072C28.7498 24.1345 29.3766 23.5082 30.1498 23.5082Z" fill="#1A181E"/>
<path d="M20.8384 15.4462C20.2144 14.8544 19.2784 14.8544 18.6624 15.4462C18.3584 15.7341 18.1904 16.102 18.1904 16.4939C18.1904 16.8778 18.3584 17.2536 18.6624 17.5416L21.4544 20.2048C21.7824 20.5167 22.1104 20.6526 22.5424 20.6526C22.8464 20.6526 23.3104 20.5167 23.6304 20.2048C23.9344 19.9168 24.1024 19.541 24.1024 19.1571C24.1024 18.7732 23.9344 18.3973 23.6304 18.1094L20.8384 15.4462Z" fill="#1A181E"/>
<path d="M42.1278 16.4939C42.1278 16.102 41.9598 15.7341 41.6558 15.4462C41.0318 14.8544 40.0958 14.8544 39.4798 15.4462L36.6878 18.1094C36.3838 18.3973 36.2158 18.7732 36.2158 19.1571C36.2158 19.5489 36.3838 19.9168 36.6878 20.2048C37.0158 20.5167 37.3358 20.6526 37.7758 20.6526C38.2158 20.6526 38.5358 20.5167 38.8638 20.2048L41.6558 17.5416C41.9598 17.2536 42.1278 16.8778 42.1278 16.4939Z" fill="#1A181E"/>
<path d="M44.7618 24.3359H40.5698C39.6418 24.3359 39.0098 24.9357 39.0098 25.8314C39.0098 26.727 39.6338 27.3268 40.5698 27.3268H44.7618C45.5138 27.3268 46.3218 26.759 46.3218 25.8314C46.3218 24.9357 45.6978 24.3359 44.7618 24.3359Z" fill="#1A181E"/>
<path d="M19.752 24.3359H15.56C14.624 24.3359 14 24.9355 14 25.8229C14 26.7183 14.624 27.3178 15.56 27.3178H19.752C20.504 27.3178 21.312 26.7502 21.312 25.8229C21.304 24.9355 20.68 24.3359 19.752 24.3359Z" fill="#1A181E"/>
<path d="M30.1713 11C29.2433 11 28.6113 11.6001 28.6113 12.4962V16.4966C28.6113 17.3926 29.2353 17.9927 30.1713 17.9927C31.1073 17.9927 31.7313 17.3926 31.7313 16.4966V12.4962C31.7233 11.6001 31.0993 11 30.1713 11Z" fill="#1A181E"/>
</svg>
