<svg width="40" height="40" viewBox="0 0 40 40" fill="none" xmlns="http://www.w3.org/2000/svg">
<path fill-rule="evenodd" clip-rule="evenodd" d="M1 6C1 4.89543 1.89543 4 3 4H26C27.1046 4 28 4.89543 28 6V25.6667C28 26.7712 27.1046 27.6667 26 27.6667H3C1.89543 27.6667 1 26.7712 1 25.6667V6ZM26 6L3 6V25.6667L26 25.6667V6Z" fill="#1A181E"/>
<path d="M2 19C2 18.4477 2.44772 18 3 18H26C26.5523 18 27 18.4477 27 19V25C27 25.5523 26.5523 26 26 26H3C2.44772 26 2 25.5523 2 25V19Z" fill="#7A3711" fill-opacity="0.4"/>
<path fill-rule="evenodd" clip-rule="evenodd" d="M26 12.334H31.6667C32.0994 12.334 32.5205 12.4743 32.8667 12.734L38.8667 17.234C39.3703 17.6117 39.6667 18.2045 39.6667 18.834V25.6673C39.6667 26.7719 38.7712 27.6673 37.6667 27.6673H26V12.334ZM28 14.334V25.6673H37.6667V18.834L31.6667 14.334H28Z" fill="#1A181E"/>
<path fill-rule="evenodd" clip-rule="evenodd" d="M10.1667 27.666C8.41776 27.666 7 29.0838 7 30.8327C7 32.5816 8.41776 33.9993 10.1667 33.9993C11.9156 33.9993 13.3333 32.5816 13.3333 30.8327C13.3333 29.0838 11.9156 27.666 10.1667 27.666ZM5 30.8327C5 27.9792 7.3132 25.666 10.1667 25.666C13.0201 25.666 15.3333 27.9792 15.3333 30.8327C15.3333 33.6862 13.0201 35.9993 10.1667 35.9993C7.3132 35.9993 5 33.6862 5 30.8327Z" fill="#1A181E"/>
<path fill-rule="evenodd" clip-rule="evenodd" d="M31.8307 27.666C30.0818 27.666 28.6641 29.0838 28.6641 30.8327C28.6641 32.5816 30.0818 33.9993 31.8307 33.9993C33.5796 33.9993 34.9974 32.5816 34.9974 30.8327C34.9974 29.0838 33.5796 27.666 31.8307 27.666ZM26.6641 30.8327C26.6641 27.9792 28.9773 25.666 31.8307 25.666C34.6842 25.666 36.9974 27.9792 36.9974 30.8327C36.9974 33.6862 34.6842 35.9993 31.8307 35.9993C28.9773 35.9993 26.6641 33.6862 26.6641 30.8327Z" fill="#1A181E"/>
</svg>
